%TF.GenerationSoftware,KiCad,Pcbnew,(5.1.8)-1*%
%TF.CreationDate,2020-12-08T02:20:49-08:00*%
%TF.ProjectId,pihidscan,70696869-6473-4636-916e-2e6b69636164,rev?*%
%TF.SameCoordinates,Original*%
%TF.FileFunction,Copper,L2,Bot*%
%TF.FilePolarity,Positive*%
%FSLAX46Y46*%
G04 Gerber Fmt 4.6, Leading zero omitted, Abs format (unit mm)*
G04 Created by KiCad (PCBNEW (5.1.8)-1) date 2020-12-08 02:20:49*
%MOMM*%
%LPD*%
G01*
G04 APERTURE LIST*
%TA.AperFunction,ComponentPad*%
%ADD10O,1.700000X1.700000*%
%TD*%
%TA.AperFunction,ComponentPad*%
%ADD11R,1.700000X1.700000*%
%TD*%
%TA.AperFunction,ComponentPad*%
%ADD12C,1.800000*%
%TD*%
%TA.AperFunction,ComponentPad*%
%ADD13R,1.800000X1.800000*%
%TD*%
%TA.AperFunction,ComponentPad*%
%ADD14O,1.980000X3.960000*%
%TD*%
%TA.AperFunction,ComponentPad*%
%ADD15R,1.980000X3.960000*%
%TD*%
%TA.AperFunction,ComponentPad*%
%ADD16C,1.524000*%
%TD*%
%TA.AperFunction,ComponentPad*%
%ADD17R,1.524000X1.524000*%
%TD*%
%TA.AperFunction,ComponentPad*%
%ADD18O,1.400000X1.400000*%
%TD*%
%TA.AperFunction,ComponentPad*%
%ADD19C,1.400000*%
%TD*%
%TA.AperFunction,Conductor*%
%ADD20C,0.250000*%
%TD*%
%TA.AperFunction,Conductor*%
%ADD21C,0.254000*%
%TD*%
%TA.AperFunction,Conductor*%
%ADD22C,0.100000*%
%TD*%
G04 APERTURE END LIST*
D10*
%TO.P,LCD Disp,16*%
%TO.N,GND*%
X83820000Y-67310000D03*
%TO.P,LCD Disp,15*%
%TO.N,Net-(J5-Pad15)*%
X83820000Y-69850000D03*
%TO.P,LCD Disp,14*%
%TO.N,Net-(J2-Pad29)*%
X83820000Y-72390000D03*
%TO.P,LCD Disp,13*%
%TO.N,Net-(J2-Pad32)*%
X83820000Y-74930000D03*
%TO.P,LCD Disp,12*%
%TO.N,Net-(J2-Pad31)*%
X83820000Y-77470000D03*
%TO.P,LCD Disp,11*%
%TO.N,Net-(J2-Pad33)*%
X83820000Y-80010000D03*
%TO.P,LCD Disp,10*%
%TO.N,Net-(J5-Pad10)*%
X83820000Y-82550000D03*
%TO.P,LCD Disp,9*%
%TO.N,Net-(J5-Pad9)*%
X83820000Y-85090000D03*
%TO.P,LCD Disp,8*%
%TO.N,Net-(J5-Pad8)*%
X83820000Y-87630000D03*
%TO.P,LCD Disp,7*%
%TO.N,Net-(J5-Pad7)*%
X83820000Y-90170000D03*
%TO.P,LCD Disp,6*%
%TO.N,Net-(J2-Pad36)*%
X83820000Y-92710000D03*
%TO.P,LCD Disp,5*%
%TO.N,GND*%
X83820000Y-95250000D03*
%TO.P,LCD Disp,4*%
%TO.N,Net-(J2-Pad37)*%
X83820000Y-97790000D03*
%TO.P,LCD Disp,3*%
%TO.N,Net-(J5-Pad3)*%
X83820000Y-100330000D03*
%TO.P,LCD Disp,2*%
%TO.N,+5V*%
X83820000Y-102870000D03*
D11*
%TO.P,LCD Disp,1*%
%TO.N,GND*%
X83820000Y-105410000D03*
%TD*%
D10*
%TO.P,Pi Conn,40*%
%TO.N,Net-(J2-Pad40)*%
X60960000Y-105410000D03*
%TO.P,Pi Conn,39*%
%TO.N,Net-(J2-Pad39)*%
X58420000Y-105410000D03*
%TO.P,Pi Conn,38*%
%TO.N,Net-(J2-Pad38)*%
X60960000Y-102870000D03*
%TO.P,Pi Conn,37*%
%TO.N,Net-(J2-Pad37)*%
X58420000Y-102870000D03*
%TO.P,Pi Conn,36*%
%TO.N,Net-(J2-Pad36)*%
X60960000Y-100330000D03*
%TO.P,Pi Conn,35*%
%TO.N,Net-(J2-Pad35)*%
X58420000Y-100330000D03*
%TO.P,Pi Conn,34*%
%TO.N,Net-(J2-Pad34)*%
X60960000Y-97790000D03*
%TO.P,Pi Conn,33*%
%TO.N,Net-(J2-Pad33)*%
X58420000Y-97790000D03*
%TO.P,Pi Conn,32*%
%TO.N,Net-(J2-Pad32)*%
X60960000Y-95250000D03*
%TO.P,Pi Conn,31*%
%TO.N,Net-(J2-Pad31)*%
X58420000Y-95250000D03*
%TO.P,Pi Conn,30*%
%TO.N,Net-(J2-Pad30)*%
X60960000Y-92710000D03*
%TO.P,Pi Conn,29*%
%TO.N,Net-(J2-Pad29)*%
X58420000Y-92710000D03*
%TO.P,Pi Conn,28*%
%TO.N,Net-(J2-Pad28)*%
X60960000Y-90170000D03*
%TO.P,Pi Conn,27*%
%TO.N,Net-(J2-Pad27)*%
X58420000Y-90170000D03*
%TO.P,Pi Conn,26*%
%TO.N,Net-(J2-Pad26)*%
X60960000Y-87630000D03*
%TO.P,Pi Conn,25*%
%TO.N,Net-(J2-Pad25)*%
X58420000Y-87630000D03*
%TO.P,Pi Conn,24*%
%TO.N,Net-(J2-Pad24)*%
X60960000Y-85090000D03*
%TO.P,Pi Conn,23*%
%TO.N,Net-(J2-Pad23)*%
X58420000Y-85090000D03*
%TO.P,Pi Conn,22*%
%TO.N,Net-(D1-Pad2)*%
X60960000Y-82550000D03*
%TO.P,Pi Conn,21*%
%TO.N,Net-(J2-Pad21)*%
X58420000Y-82550000D03*
%TO.P,Pi Conn,20*%
%TO.N,Net-(J2-Pad20)*%
X60960000Y-80010000D03*
%TO.P,Pi Conn,19*%
%TO.N,Net-(J2-Pad19)*%
X58420000Y-80010000D03*
%TO.P,Pi Conn,18*%
%TO.N,Net-(J2-Pad18)*%
X60960000Y-77470000D03*
%TO.P,Pi Conn,17*%
%TO.N,Net-(D2-Pad2)*%
X58420000Y-77470000D03*
%TO.P,Pi Conn,16*%
%TO.N,Net-(J2-Pad16)*%
X60960000Y-74930000D03*
%TO.P,Pi Conn,15*%
%TO.N,Net-(J2-Pad15)*%
X58420000Y-74930000D03*
%TO.P,Pi Conn,14*%
%TO.N,Net-(J2-Pad14)*%
X60960000Y-72390000D03*
%TO.P,Pi Conn,13*%
%TO.N,Net-(J2-Pad13)*%
X58420000Y-72390000D03*
%TO.P,Pi Conn,12*%
%TO.N,Net-(J2-Pad12)*%
X60960000Y-69850000D03*
%TO.P,Pi Conn,11*%
%TO.N,Net-(J2-Pad11)*%
X58420000Y-69850000D03*
%TO.P,Pi Conn,10*%
%TO.N,Net-(J2-Pad10)*%
X60960000Y-67310000D03*
%TO.P,Pi Conn,9*%
%TO.N,Net-(HIDPWD1-Pad1)*%
X58420000Y-67310000D03*
%TO.P,Pi Conn,8*%
%TO.N,Net-(J2-Pad8)*%
X60960000Y-64770000D03*
%TO.P,Pi Conn,7*%
%TO.N,Net-(J2-Pad7)*%
X58420000Y-64770000D03*
%TO.P,Pi Conn,6*%
%TO.N,GND*%
X60960000Y-62230000D03*
%TO.P,Pi Conn,5*%
%TO.N,Net-(J2-Pad5)*%
X58420000Y-62230000D03*
%TO.P,Pi Conn,4*%
%TO.N,Net-(HIDPWD1-Pad2)*%
X60960000Y-59690000D03*
%TO.P,Pi Conn,3*%
%TO.N,Net-(J2-Pad3)*%
X58420000Y-59690000D03*
%TO.P,Pi Conn,2*%
%TO.N,+5V*%
X60960000Y-57150000D03*
D11*
%TO.P,Pi Conn,1*%
%TO.N,+3V3*%
X58420000Y-57150000D03*
%TD*%
D12*
%TO.P,PWR,2*%
%TO.N,Net-(D2-Pad2)*%
X66040000Y-77470000D03*
D13*
%TO.P,PWR,1*%
%TO.N,GND*%
X68580000Y-77470000D03*
%TD*%
D12*
%TO.P,DI,2*%
%TO.N,Net-(D1-Pad2)*%
X66040000Y-82550000D03*
D13*
%TO.P,DI,1*%
%TO.N,GND*%
X68580000Y-82550000D03*
%TD*%
D14*
%TO.P,+ HIDPWD -,2*%
%TO.N,Net-(HIDPWD1-Pad2)*%
X57230000Y-40640000D03*
D15*
%TO.P,+ HIDPWD -,1*%
%TO.N,Net-(HIDPWD1-Pad1)*%
X62230000Y-40640000D03*
%TD*%
D16*
%TO.P,L                  H,HV4*%
%TO.N,Net-(U2-PadHV4)*%
X77470000Y-69850000D03*
%TO.P,L                  H,HV3*%
%TO.N,Net-(J4-Pad2)*%
X77470000Y-67310000D03*
%TO.P,L                  H,GND_1*%
%TO.N,GND*%
X77470000Y-64770000D03*
%TO.P,L                  H,HV*%
%TO.N,+5V*%
X77470000Y-62230000D03*
%TO.P,L                  H,HV2*%
%TO.N,Net-(U2-PadHV2)*%
X77470000Y-59690000D03*
D17*
%TO.P,L                  H,HV1*%
%TO.N,Net-(J4-Pad1)*%
X77470000Y-57150000D03*
D16*
%TO.P,L                  H,LV4*%
%TO.N,Net-(U2-PadLV4)*%
X67310000Y-69850000D03*
%TO.P,L                  H,LV3*%
%TO.N,Net-(J2-Pad18)*%
X67310000Y-67310000D03*
%TO.P,L                  H,GND_2*%
%TO.N,GND*%
X67310000Y-64770000D03*
%TO.P,L                  H,LV*%
%TO.N,+3V3*%
X67310000Y-62230000D03*
%TO.P,L                  H,LV2*%
%TO.N,Net-(U2-PadLV2)*%
X67310000Y-59690000D03*
D17*
%TO.P,L                  H,LV1*%
%TO.N,Net-(J2-Pad16)*%
X67310000Y-57150000D03*
%TD*%
D18*
%TO.P,R2,2*%
%TO.N,+5V*%
X77470000Y-88900000D03*
D19*
%TO.P,R2,1*%
%TO.N,Net-(J5-Pad15)*%
X77470000Y-81280000D03*
%TD*%
D18*
%TO.P,R1,2*%
%TO.N,+5V*%
X77470000Y-93980000D03*
D19*
%TO.P,R1,1*%
%TO.N,Net-(J5-Pad3)*%
X77470000Y-101600000D03*
%TD*%
D14*
%TO.P,Relay      ,2*%
%TO.N,Net-(J2-Pad12)*%
X80090000Y-40640000D03*
D15*
%TO.P,Relay      ,1*%
%TO.N,Net-(kljsd1-Pad1)*%
X85090000Y-40640000D03*
%TD*%
D14*
%TO.P,D0 Data D1,2*%
%TO.N,Net-(J4-Pad2)*%
X68660000Y-40640000D03*
D15*
%TO.P,D0 Data D1,1*%
%TO.N,Net-(J4-Pad1)*%
X73660000Y-40640000D03*
%TD*%
D20*
%TO.N,Net-(HIDPWD1-Pad2)*%
X59595001Y-58325001D02*
X60960000Y-59690000D01*
X59595001Y-43005001D02*
X59595001Y-58325001D01*
X57230000Y-40640000D02*
X59595001Y-43005001D01*
%TO.N,Net-(HIDPWD1-Pad1)*%
X55914990Y-64804990D02*
X58420000Y-67310000D01*
X55914990Y-39105306D02*
X55914990Y-64804990D01*
X56685306Y-38334990D02*
X55914990Y-39105306D01*
X59924990Y-38334990D02*
X56685306Y-38334990D01*
X62230000Y-40640000D02*
X59924990Y-38334990D01*
%TO.N,Net-(J2-Pad29)*%
X60585997Y-88805001D02*
X67404999Y-88805001D01*
X59784999Y-89605999D02*
X60585997Y-88805001D01*
X59784999Y-91345001D02*
X59784999Y-89605999D01*
X67404999Y-88805001D02*
X83820000Y-72390000D01*
X58420000Y-92710000D02*
X59784999Y-91345001D01*
%TO.N,GND*%
X60960000Y-62230000D02*
X62230000Y-60960000D01*
X60960000Y-62230000D02*
X62230000Y-63500000D01*
X60960000Y-62230000D02*
X61292917Y-62230000D01*
X61292917Y-62230000D02*
X62230000Y-63167083D01*
X62230000Y-63167083D02*
X62230000Y-62230000D01*
X62230000Y-60960000D02*
X61987678Y-60960000D01*
X61987678Y-60960000D02*
X61520229Y-61427449D01*
X61362502Y-61427449D02*
X61520229Y-61427449D01*
X60960000Y-62230000D02*
X60960000Y-62583657D01*
X60960000Y-62583657D02*
X61876343Y-63500000D01*
X61876343Y-63500000D02*
X62230000Y-63500000D01*
X60960000Y-62230000D02*
X60960000Y-61755727D01*
X60960000Y-61755727D02*
X61755727Y-60960000D01*
X62230000Y-61626926D02*
X62230000Y-61292917D01*
X61854239Y-62002687D02*
X62230000Y-61626926D01*
X62230000Y-61292917D02*
X61292917Y-62230000D01*
X62123302Y-62002687D02*
X61854239Y-62002687D01*
X62373809Y-61752180D02*
X62123302Y-62002687D01*
X62373809Y-62086191D02*
X62373809Y-61752180D01*
X61914547Y-62545453D02*
X62373809Y-62086191D01*
X61599093Y-62230000D02*
X61914547Y-62545453D01*
X60960000Y-62230000D02*
X61599093Y-62230000D01*
X60960000Y-62230000D02*
X61580537Y-62230000D01*
X61580537Y-62230000D02*
X62095468Y-62744931D01*
X60960000Y-62230000D02*
X61812488Y-62230000D01*
X61812488Y-62230000D02*
X62531536Y-62949048D01*
X60960000Y-62230000D02*
X60960000Y-62778496D01*
X60960000Y-62778496D02*
X61681504Y-63500000D01*
%TO.N,Net-(D1-Pad2)*%
X66040000Y-82550000D02*
X60960000Y-82550000D01*
%TO.N,Net-(D2-Pad2)*%
X64675001Y-78834999D02*
X66040000Y-77470000D01*
X59784999Y-78834999D02*
X64675001Y-78834999D01*
X58420000Y-77470000D02*
X59784999Y-78834999D01*
%TD*%
D21*
%TO.N,GND*%
X88773000Y-107823000D02*
X53467000Y-107823000D01*
X53467000Y-39105306D01*
X55151314Y-39105306D01*
X55154990Y-39142628D01*
X55154991Y-64767657D01*
X55151314Y-64804990D01*
X55154991Y-64842323D01*
X55165558Y-64949605D01*
X55165988Y-64953975D01*
X55209444Y-65097236D01*
X55280016Y-65229266D01*
X55351191Y-65315992D01*
X55374990Y-65344991D01*
X55403988Y-65368789D01*
X56978790Y-66943592D01*
X56935000Y-67163740D01*
X56935000Y-67456260D01*
X56992068Y-67743158D01*
X57104010Y-68013411D01*
X57266525Y-68256632D01*
X57473368Y-68463475D01*
X57647760Y-68580000D01*
X57473368Y-68696525D01*
X57266525Y-68903368D01*
X57104010Y-69146589D01*
X56992068Y-69416842D01*
X56935000Y-69703740D01*
X56935000Y-69996260D01*
X56992068Y-70283158D01*
X57104010Y-70553411D01*
X57266525Y-70796632D01*
X57473368Y-71003475D01*
X57647760Y-71120000D01*
X57473368Y-71236525D01*
X57266525Y-71443368D01*
X57104010Y-71686589D01*
X56992068Y-71956842D01*
X56935000Y-72243740D01*
X56935000Y-72536260D01*
X56992068Y-72823158D01*
X57104010Y-73093411D01*
X57266525Y-73336632D01*
X57473368Y-73543475D01*
X57647760Y-73660000D01*
X57473368Y-73776525D01*
X57266525Y-73983368D01*
X57104010Y-74226589D01*
X56992068Y-74496842D01*
X56935000Y-74783740D01*
X56935000Y-75076260D01*
X56992068Y-75363158D01*
X57104010Y-75633411D01*
X57266525Y-75876632D01*
X57473368Y-76083475D01*
X57647760Y-76200000D01*
X57473368Y-76316525D01*
X57266525Y-76523368D01*
X57104010Y-76766589D01*
X56992068Y-77036842D01*
X56935000Y-77323740D01*
X56935000Y-77616260D01*
X56992068Y-77903158D01*
X57104010Y-78173411D01*
X57266525Y-78416632D01*
X57473368Y-78623475D01*
X57647760Y-78740000D01*
X57473368Y-78856525D01*
X57266525Y-79063368D01*
X57104010Y-79306589D01*
X56992068Y-79576842D01*
X56935000Y-79863740D01*
X56935000Y-80156260D01*
X56992068Y-80443158D01*
X57104010Y-80713411D01*
X57266525Y-80956632D01*
X57473368Y-81163475D01*
X57647760Y-81280000D01*
X57473368Y-81396525D01*
X57266525Y-81603368D01*
X57104010Y-81846589D01*
X56992068Y-82116842D01*
X56935000Y-82403740D01*
X56935000Y-82696260D01*
X56992068Y-82983158D01*
X57104010Y-83253411D01*
X57266525Y-83496632D01*
X57473368Y-83703475D01*
X57647760Y-83820000D01*
X57473368Y-83936525D01*
X57266525Y-84143368D01*
X57104010Y-84386589D01*
X56992068Y-84656842D01*
X56935000Y-84943740D01*
X56935000Y-85236260D01*
X56992068Y-85523158D01*
X57104010Y-85793411D01*
X57266525Y-86036632D01*
X57473368Y-86243475D01*
X57647760Y-86360000D01*
X57473368Y-86476525D01*
X57266525Y-86683368D01*
X57104010Y-86926589D01*
X56992068Y-87196842D01*
X56935000Y-87483740D01*
X56935000Y-87776260D01*
X56992068Y-88063158D01*
X57104010Y-88333411D01*
X57266525Y-88576632D01*
X57473368Y-88783475D01*
X57647760Y-88900000D01*
X57473368Y-89016525D01*
X57266525Y-89223368D01*
X57104010Y-89466589D01*
X56992068Y-89736842D01*
X56935000Y-90023740D01*
X56935000Y-90316260D01*
X56992068Y-90603158D01*
X57104010Y-90873411D01*
X57266525Y-91116632D01*
X57473368Y-91323475D01*
X57647760Y-91440000D01*
X57473368Y-91556525D01*
X57266525Y-91763368D01*
X57104010Y-92006589D01*
X56992068Y-92276842D01*
X56935000Y-92563740D01*
X56935000Y-92856260D01*
X56992068Y-93143158D01*
X57104010Y-93413411D01*
X57266525Y-93656632D01*
X57473368Y-93863475D01*
X57647760Y-93980000D01*
X57473368Y-94096525D01*
X57266525Y-94303368D01*
X57104010Y-94546589D01*
X56992068Y-94816842D01*
X56935000Y-95103740D01*
X56935000Y-95396260D01*
X56992068Y-95683158D01*
X57104010Y-95953411D01*
X57266525Y-96196632D01*
X57473368Y-96403475D01*
X57647760Y-96520000D01*
X57473368Y-96636525D01*
X57266525Y-96843368D01*
X57104010Y-97086589D01*
X56992068Y-97356842D01*
X56935000Y-97643740D01*
X56935000Y-97936260D01*
X56992068Y-98223158D01*
X57104010Y-98493411D01*
X57266525Y-98736632D01*
X57473368Y-98943475D01*
X57647760Y-99060000D01*
X57473368Y-99176525D01*
X57266525Y-99383368D01*
X57104010Y-99626589D01*
X56992068Y-99896842D01*
X56935000Y-100183740D01*
X56935000Y-100476260D01*
X56992068Y-100763158D01*
X57104010Y-101033411D01*
X57266525Y-101276632D01*
X57473368Y-101483475D01*
X57647760Y-101600000D01*
X57473368Y-101716525D01*
X57266525Y-101923368D01*
X57104010Y-102166589D01*
X56992068Y-102436842D01*
X56935000Y-102723740D01*
X56935000Y-103016260D01*
X56992068Y-103303158D01*
X57104010Y-103573411D01*
X57266525Y-103816632D01*
X57473368Y-104023475D01*
X57647760Y-104140000D01*
X57473368Y-104256525D01*
X57266525Y-104463368D01*
X57104010Y-104706589D01*
X56992068Y-104976842D01*
X56935000Y-105263740D01*
X56935000Y-105556260D01*
X56992068Y-105843158D01*
X57104010Y-106113411D01*
X57266525Y-106356632D01*
X57473368Y-106563475D01*
X57716589Y-106725990D01*
X57986842Y-106837932D01*
X58273740Y-106895000D01*
X58566260Y-106895000D01*
X58853158Y-106837932D01*
X59123411Y-106725990D01*
X59366632Y-106563475D01*
X59573475Y-106356632D01*
X59690000Y-106182240D01*
X59806525Y-106356632D01*
X60013368Y-106563475D01*
X60256589Y-106725990D01*
X60526842Y-106837932D01*
X60813740Y-106895000D01*
X61106260Y-106895000D01*
X61393158Y-106837932D01*
X61663411Y-106725990D01*
X61906632Y-106563475D01*
X62113475Y-106356632D01*
X62178042Y-106260000D01*
X82331928Y-106260000D01*
X82344188Y-106384482D01*
X82380498Y-106504180D01*
X82439463Y-106614494D01*
X82518815Y-106711185D01*
X82615506Y-106790537D01*
X82725820Y-106849502D01*
X82845518Y-106885812D01*
X82970000Y-106898072D01*
X83534250Y-106895000D01*
X83693000Y-106736250D01*
X83693000Y-105537000D01*
X83947000Y-105537000D01*
X83947000Y-106736250D01*
X84105750Y-106895000D01*
X84670000Y-106898072D01*
X84794482Y-106885812D01*
X84914180Y-106849502D01*
X85024494Y-106790537D01*
X85121185Y-106711185D01*
X85200537Y-106614494D01*
X85259502Y-106504180D01*
X85295812Y-106384482D01*
X85308072Y-106260000D01*
X85305000Y-105695750D01*
X85146250Y-105537000D01*
X83947000Y-105537000D01*
X83693000Y-105537000D01*
X82493750Y-105537000D01*
X82335000Y-105695750D01*
X82331928Y-106260000D01*
X62178042Y-106260000D01*
X62275990Y-106113411D01*
X62387932Y-105843158D01*
X62445000Y-105556260D01*
X62445000Y-105263740D01*
X62387932Y-104976842D01*
X62275990Y-104706589D01*
X62178043Y-104560000D01*
X82331928Y-104560000D01*
X82335000Y-105124250D01*
X82493750Y-105283000D01*
X83693000Y-105283000D01*
X83693000Y-105263000D01*
X83947000Y-105263000D01*
X83947000Y-105283000D01*
X85146250Y-105283000D01*
X85305000Y-105124250D01*
X85308072Y-104560000D01*
X85295812Y-104435518D01*
X85259502Y-104315820D01*
X85200537Y-104205506D01*
X85121185Y-104108815D01*
X85024494Y-104029463D01*
X84914180Y-103970498D01*
X84841620Y-103948487D01*
X84973475Y-103816632D01*
X85135990Y-103573411D01*
X85247932Y-103303158D01*
X85305000Y-103016260D01*
X85305000Y-102723740D01*
X85247932Y-102436842D01*
X85135990Y-102166589D01*
X84973475Y-101923368D01*
X84766632Y-101716525D01*
X84592240Y-101600000D01*
X84766632Y-101483475D01*
X84973475Y-101276632D01*
X85135990Y-101033411D01*
X85247932Y-100763158D01*
X85305000Y-100476260D01*
X85305000Y-100183740D01*
X85247932Y-99896842D01*
X85135990Y-99626589D01*
X84973475Y-99383368D01*
X84766632Y-99176525D01*
X84592240Y-99060000D01*
X84766632Y-98943475D01*
X84973475Y-98736632D01*
X85135990Y-98493411D01*
X85247932Y-98223158D01*
X85305000Y-97936260D01*
X85305000Y-97643740D01*
X85247932Y-97356842D01*
X85135990Y-97086589D01*
X84973475Y-96843368D01*
X84766632Y-96636525D01*
X84584466Y-96514805D01*
X84701355Y-96445178D01*
X84917588Y-96250269D01*
X85091641Y-96016920D01*
X85216825Y-95754099D01*
X85261476Y-95606890D01*
X85140155Y-95377000D01*
X83947000Y-95377000D01*
X83947000Y-95397000D01*
X83693000Y-95397000D01*
X83693000Y-95377000D01*
X82499845Y-95377000D01*
X82378524Y-95606890D01*
X82423175Y-95754099D01*
X82548359Y-96016920D01*
X82722412Y-96250269D01*
X82938645Y-96445178D01*
X83055534Y-96514805D01*
X82873368Y-96636525D01*
X82666525Y-96843368D01*
X82504010Y-97086589D01*
X82392068Y-97356842D01*
X82335000Y-97643740D01*
X82335000Y-97936260D01*
X82392068Y-98223158D01*
X82504010Y-98493411D01*
X82666525Y-98736632D01*
X82873368Y-98943475D01*
X83047760Y-99060000D01*
X82873368Y-99176525D01*
X82666525Y-99383368D01*
X82504010Y-99626589D01*
X82392068Y-99896842D01*
X82335000Y-100183740D01*
X82335000Y-100476260D01*
X82392068Y-100763158D01*
X82504010Y-101033411D01*
X82666525Y-101276632D01*
X82873368Y-101483475D01*
X83047760Y-101600000D01*
X82873368Y-101716525D01*
X82666525Y-101923368D01*
X82504010Y-102166589D01*
X82392068Y-102436842D01*
X82335000Y-102723740D01*
X82335000Y-103016260D01*
X82392068Y-103303158D01*
X82504010Y-103573411D01*
X82666525Y-103816632D01*
X82798380Y-103948487D01*
X82725820Y-103970498D01*
X82615506Y-104029463D01*
X82518815Y-104108815D01*
X82439463Y-104205506D01*
X82380498Y-104315820D01*
X82344188Y-104435518D01*
X82331928Y-104560000D01*
X62178043Y-104560000D01*
X62113475Y-104463368D01*
X61906632Y-104256525D01*
X61732240Y-104140000D01*
X61906632Y-104023475D01*
X62113475Y-103816632D01*
X62275990Y-103573411D01*
X62387932Y-103303158D01*
X62445000Y-103016260D01*
X62445000Y-102723740D01*
X62387932Y-102436842D01*
X62275990Y-102166589D01*
X62113475Y-101923368D01*
X61906632Y-101716525D01*
X61732240Y-101600000D01*
X61906632Y-101483475D01*
X61921593Y-101468514D01*
X76135000Y-101468514D01*
X76135000Y-101731486D01*
X76186304Y-101989405D01*
X76286939Y-102232359D01*
X76433038Y-102451013D01*
X76618987Y-102636962D01*
X76837641Y-102783061D01*
X77080595Y-102883696D01*
X77338514Y-102935000D01*
X77601486Y-102935000D01*
X77859405Y-102883696D01*
X78102359Y-102783061D01*
X78321013Y-102636962D01*
X78506962Y-102451013D01*
X78653061Y-102232359D01*
X78753696Y-101989405D01*
X78805000Y-101731486D01*
X78805000Y-101468514D01*
X78753696Y-101210595D01*
X78653061Y-100967641D01*
X78506962Y-100748987D01*
X78321013Y-100563038D01*
X78102359Y-100416939D01*
X77859405Y-100316304D01*
X77601486Y-100265000D01*
X77338514Y-100265000D01*
X77080595Y-100316304D01*
X76837641Y-100416939D01*
X76618987Y-100563038D01*
X76433038Y-100748987D01*
X76286939Y-100967641D01*
X76186304Y-101210595D01*
X76135000Y-101468514D01*
X61921593Y-101468514D01*
X62113475Y-101276632D01*
X62275990Y-101033411D01*
X62387932Y-100763158D01*
X62445000Y-100476260D01*
X62445000Y-100183740D01*
X62387932Y-99896842D01*
X62275990Y-99626589D01*
X62113475Y-99383368D01*
X61906632Y-99176525D01*
X61732240Y-99060000D01*
X61906632Y-98943475D01*
X62113475Y-98736632D01*
X62275990Y-98493411D01*
X62387932Y-98223158D01*
X62445000Y-97936260D01*
X62445000Y-97643740D01*
X62387932Y-97356842D01*
X62275990Y-97086589D01*
X62113475Y-96843368D01*
X61906632Y-96636525D01*
X61732240Y-96520000D01*
X61906632Y-96403475D01*
X62113475Y-96196632D01*
X62275990Y-95953411D01*
X62387932Y-95683158D01*
X62445000Y-95396260D01*
X62445000Y-95103740D01*
X62387932Y-94816842D01*
X62275990Y-94546589D01*
X62113475Y-94303368D01*
X61906632Y-94096525D01*
X61732240Y-93980000D01*
X61906632Y-93863475D01*
X61921593Y-93848514D01*
X76135000Y-93848514D01*
X76135000Y-94111486D01*
X76186304Y-94369405D01*
X76286939Y-94612359D01*
X76433038Y-94831013D01*
X76618987Y-95016962D01*
X76837641Y-95163061D01*
X77080595Y-95263696D01*
X77338514Y-95315000D01*
X77601486Y-95315000D01*
X77859405Y-95263696D01*
X78102359Y-95163061D01*
X78321013Y-95016962D01*
X78506962Y-94831013D01*
X78653061Y-94612359D01*
X78753696Y-94369405D01*
X78805000Y-94111486D01*
X78805000Y-93848514D01*
X78753696Y-93590595D01*
X78653061Y-93347641D01*
X78506962Y-93128987D01*
X78321013Y-92943038D01*
X78102359Y-92796939D01*
X77859405Y-92696304D01*
X77601486Y-92645000D01*
X77338514Y-92645000D01*
X77080595Y-92696304D01*
X76837641Y-92796939D01*
X76618987Y-92943038D01*
X76433038Y-93128987D01*
X76286939Y-93347641D01*
X76186304Y-93590595D01*
X76135000Y-93848514D01*
X61921593Y-93848514D01*
X62113475Y-93656632D01*
X62275990Y-93413411D01*
X62387932Y-93143158D01*
X62445000Y-92856260D01*
X62445000Y-92563740D01*
X62387932Y-92276842D01*
X62275990Y-92006589D01*
X62113475Y-91763368D01*
X61906632Y-91556525D01*
X61732240Y-91440000D01*
X61906632Y-91323475D01*
X62113475Y-91116632D01*
X62275990Y-90873411D01*
X62387932Y-90603158D01*
X62445000Y-90316260D01*
X62445000Y-90023740D01*
X62387932Y-89736842D01*
X62316753Y-89565001D01*
X67367677Y-89565001D01*
X67404999Y-89568677D01*
X67442321Y-89565001D01*
X67442332Y-89565001D01*
X67553985Y-89554004D01*
X67697246Y-89510547D01*
X67829275Y-89439975D01*
X67945000Y-89345002D01*
X67968803Y-89315998D01*
X68516287Y-88768514D01*
X76135000Y-88768514D01*
X76135000Y-89031486D01*
X76186304Y-89289405D01*
X76286939Y-89532359D01*
X76433038Y-89751013D01*
X76618987Y-89936962D01*
X76837641Y-90083061D01*
X77080595Y-90183696D01*
X77338514Y-90235000D01*
X77601486Y-90235000D01*
X77859405Y-90183696D01*
X78102359Y-90083061D01*
X78321013Y-89936962D01*
X78506962Y-89751013D01*
X78653061Y-89532359D01*
X78753696Y-89289405D01*
X78805000Y-89031486D01*
X78805000Y-88768514D01*
X78753696Y-88510595D01*
X78653061Y-88267641D01*
X78506962Y-88048987D01*
X78321013Y-87863038D01*
X78102359Y-87716939D01*
X77859405Y-87616304D01*
X77601486Y-87565000D01*
X77338514Y-87565000D01*
X77080595Y-87616304D01*
X76837641Y-87716939D01*
X76618987Y-87863038D01*
X76433038Y-88048987D01*
X76286939Y-88267641D01*
X76186304Y-88510595D01*
X76135000Y-88768514D01*
X68516287Y-88768514D01*
X76135000Y-81149801D01*
X76135000Y-81411486D01*
X76186304Y-81669405D01*
X76286939Y-81912359D01*
X76433038Y-82131013D01*
X76618987Y-82316962D01*
X76837641Y-82463061D01*
X77080595Y-82563696D01*
X77338514Y-82615000D01*
X77601486Y-82615000D01*
X77859405Y-82563696D01*
X78102359Y-82463061D01*
X78321013Y-82316962D01*
X78506962Y-82131013D01*
X78653061Y-81912359D01*
X78753696Y-81669405D01*
X78805000Y-81411486D01*
X78805000Y-81148514D01*
X78753696Y-80890595D01*
X78653061Y-80647641D01*
X78506962Y-80428987D01*
X78321013Y-80243038D01*
X78102359Y-80096939D01*
X77859405Y-79996304D01*
X77601486Y-79945000D01*
X77339802Y-79945000D01*
X82335000Y-74949802D01*
X82335000Y-75076260D01*
X82392068Y-75363158D01*
X82504010Y-75633411D01*
X82666525Y-75876632D01*
X82873368Y-76083475D01*
X83047760Y-76200000D01*
X82873368Y-76316525D01*
X82666525Y-76523368D01*
X82504010Y-76766589D01*
X82392068Y-77036842D01*
X82335000Y-77323740D01*
X82335000Y-77616260D01*
X82392068Y-77903158D01*
X82504010Y-78173411D01*
X82666525Y-78416632D01*
X82873368Y-78623475D01*
X83047760Y-78740000D01*
X82873368Y-78856525D01*
X82666525Y-79063368D01*
X82504010Y-79306589D01*
X82392068Y-79576842D01*
X82335000Y-79863740D01*
X82335000Y-80156260D01*
X82392068Y-80443158D01*
X82504010Y-80713411D01*
X82666525Y-80956632D01*
X82873368Y-81163475D01*
X83047760Y-81280000D01*
X82873368Y-81396525D01*
X82666525Y-81603368D01*
X82504010Y-81846589D01*
X82392068Y-82116842D01*
X82335000Y-82403740D01*
X82335000Y-82696260D01*
X82392068Y-82983158D01*
X82504010Y-83253411D01*
X82666525Y-83496632D01*
X82873368Y-83703475D01*
X83047760Y-83820000D01*
X82873368Y-83936525D01*
X82666525Y-84143368D01*
X82504010Y-84386589D01*
X82392068Y-84656842D01*
X82335000Y-84943740D01*
X82335000Y-85236260D01*
X82392068Y-85523158D01*
X82504010Y-85793411D01*
X82666525Y-86036632D01*
X82873368Y-86243475D01*
X83047760Y-86360000D01*
X82873368Y-86476525D01*
X82666525Y-86683368D01*
X82504010Y-86926589D01*
X82392068Y-87196842D01*
X82335000Y-87483740D01*
X82335000Y-87776260D01*
X82392068Y-88063158D01*
X82504010Y-88333411D01*
X82666525Y-88576632D01*
X82873368Y-88783475D01*
X83047760Y-88900000D01*
X82873368Y-89016525D01*
X82666525Y-89223368D01*
X82504010Y-89466589D01*
X82392068Y-89736842D01*
X82335000Y-90023740D01*
X82335000Y-90316260D01*
X82392068Y-90603158D01*
X82504010Y-90873411D01*
X82666525Y-91116632D01*
X82873368Y-91323475D01*
X83047760Y-91440000D01*
X82873368Y-91556525D01*
X82666525Y-91763368D01*
X82504010Y-92006589D01*
X82392068Y-92276842D01*
X82335000Y-92563740D01*
X82335000Y-92856260D01*
X82392068Y-93143158D01*
X82504010Y-93413411D01*
X82666525Y-93656632D01*
X82873368Y-93863475D01*
X83055534Y-93985195D01*
X82938645Y-94054822D01*
X82722412Y-94249731D01*
X82548359Y-94483080D01*
X82423175Y-94745901D01*
X82378524Y-94893110D01*
X82499845Y-95123000D01*
X83693000Y-95123000D01*
X83693000Y-95103000D01*
X83947000Y-95103000D01*
X83947000Y-95123000D01*
X85140155Y-95123000D01*
X85261476Y-94893110D01*
X85216825Y-94745901D01*
X85091641Y-94483080D01*
X84917588Y-94249731D01*
X84701355Y-94054822D01*
X84584466Y-93985195D01*
X84766632Y-93863475D01*
X84973475Y-93656632D01*
X85135990Y-93413411D01*
X85247932Y-93143158D01*
X85305000Y-92856260D01*
X85305000Y-92563740D01*
X85247932Y-92276842D01*
X85135990Y-92006589D01*
X84973475Y-91763368D01*
X84766632Y-91556525D01*
X84592240Y-91440000D01*
X84766632Y-91323475D01*
X84973475Y-91116632D01*
X85135990Y-90873411D01*
X85247932Y-90603158D01*
X85305000Y-90316260D01*
X85305000Y-90023740D01*
X85247932Y-89736842D01*
X85135990Y-89466589D01*
X84973475Y-89223368D01*
X84766632Y-89016525D01*
X84592240Y-88900000D01*
X84766632Y-88783475D01*
X84973475Y-88576632D01*
X85135990Y-88333411D01*
X85247932Y-88063158D01*
X85305000Y-87776260D01*
X85305000Y-87483740D01*
X85247932Y-87196842D01*
X85135990Y-86926589D01*
X84973475Y-86683368D01*
X84766632Y-86476525D01*
X84592240Y-86360000D01*
X84766632Y-86243475D01*
X84973475Y-86036632D01*
X85135990Y-85793411D01*
X85247932Y-85523158D01*
X85305000Y-85236260D01*
X85305000Y-84943740D01*
X85247932Y-84656842D01*
X85135990Y-84386589D01*
X84973475Y-84143368D01*
X84766632Y-83936525D01*
X84592240Y-83820000D01*
X84766632Y-83703475D01*
X84973475Y-83496632D01*
X85135990Y-83253411D01*
X85247932Y-82983158D01*
X85305000Y-82696260D01*
X85305000Y-82403740D01*
X85247932Y-82116842D01*
X85135990Y-81846589D01*
X84973475Y-81603368D01*
X84766632Y-81396525D01*
X84592240Y-81280000D01*
X84766632Y-81163475D01*
X84973475Y-80956632D01*
X85135990Y-80713411D01*
X85247932Y-80443158D01*
X85305000Y-80156260D01*
X85305000Y-79863740D01*
X85247932Y-79576842D01*
X85135990Y-79306589D01*
X84973475Y-79063368D01*
X84766632Y-78856525D01*
X84592240Y-78740000D01*
X84766632Y-78623475D01*
X84973475Y-78416632D01*
X85135990Y-78173411D01*
X85247932Y-77903158D01*
X85305000Y-77616260D01*
X85305000Y-77323740D01*
X85247932Y-77036842D01*
X85135990Y-76766589D01*
X84973475Y-76523368D01*
X84766632Y-76316525D01*
X84592240Y-76200000D01*
X84766632Y-76083475D01*
X84973475Y-75876632D01*
X85135990Y-75633411D01*
X85247932Y-75363158D01*
X85305000Y-75076260D01*
X85305000Y-74783740D01*
X85247932Y-74496842D01*
X85135990Y-74226589D01*
X84973475Y-73983368D01*
X84766632Y-73776525D01*
X84592240Y-73660000D01*
X84766632Y-73543475D01*
X84973475Y-73336632D01*
X85135990Y-73093411D01*
X85247932Y-72823158D01*
X85305000Y-72536260D01*
X85305000Y-72243740D01*
X85247932Y-71956842D01*
X85135990Y-71686589D01*
X84973475Y-71443368D01*
X84766632Y-71236525D01*
X84592240Y-71120000D01*
X84766632Y-71003475D01*
X84973475Y-70796632D01*
X85135990Y-70553411D01*
X85247932Y-70283158D01*
X85305000Y-69996260D01*
X85305000Y-69703740D01*
X85247932Y-69416842D01*
X85135990Y-69146589D01*
X84973475Y-68903368D01*
X84766632Y-68696525D01*
X84584466Y-68574805D01*
X84701355Y-68505178D01*
X84917588Y-68310269D01*
X85091641Y-68076920D01*
X85216825Y-67814099D01*
X85261476Y-67666890D01*
X85140155Y-67437000D01*
X83947000Y-67437000D01*
X83947000Y-67457000D01*
X83693000Y-67457000D01*
X83693000Y-67437000D01*
X82499845Y-67437000D01*
X82378524Y-67666890D01*
X82423175Y-67814099D01*
X82548359Y-68076920D01*
X82722412Y-68310269D01*
X82938645Y-68505178D01*
X83055534Y-68574805D01*
X82873368Y-68696525D01*
X82666525Y-68903368D01*
X82504010Y-69146589D01*
X82392068Y-69416842D01*
X82335000Y-69703740D01*
X82335000Y-69996260D01*
X82392068Y-70283158D01*
X82504010Y-70553411D01*
X82666525Y-70796632D01*
X82873368Y-71003475D01*
X83047760Y-71120000D01*
X82873368Y-71236525D01*
X82666525Y-71443368D01*
X82504010Y-71686589D01*
X82392068Y-71956842D01*
X82335000Y-72243740D01*
X82335000Y-72536260D01*
X82378790Y-72756408D01*
X67090198Y-88045001D01*
X62391544Y-88045001D01*
X62445000Y-87776260D01*
X62445000Y-87483740D01*
X62387932Y-87196842D01*
X62275990Y-86926589D01*
X62113475Y-86683368D01*
X61906632Y-86476525D01*
X61732240Y-86360000D01*
X61906632Y-86243475D01*
X62113475Y-86036632D01*
X62275990Y-85793411D01*
X62387932Y-85523158D01*
X62445000Y-85236260D01*
X62445000Y-84943740D01*
X62387932Y-84656842D01*
X62275990Y-84386589D01*
X62113475Y-84143368D01*
X61906632Y-83936525D01*
X61732240Y-83820000D01*
X61906632Y-83703475D01*
X62113475Y-83496632D01*
X62238178Y-83310000D01*
X64701687Y-83310000D01*
X64847688Y-83528505D01*
X65061495Y-83742312D01*
X65312905Y-83910299D01*
X65592257Y-84026011D01*
X65888816Y-84085000D01*
X66191184Y-84085000D01*
X66487743Y-84026011D01*
X66767095Y-83910299D01*
X67018505Y-83742312D01*
X67084944Y-83675873D01*
X67090498Y-83694180D01*
X67149463Y-83804494D01*
X67228815Y-83901185D01*
X67325506Y-83980537D01*
X67435820Y-84039502D01*
X67555518Y-84075812D01*
X67680000Y-84088072D01*
X68294250Y-84085000D01*
X68453000Y-83926250D01*
X68453000Y-82677000D01*
X68707000Y-82677000D01*
X68707000Y-83926250D01*
X68865750Y-84085000D01*
X69480000Y-84088072D01*
X69604482Y-84075812D01*
X69724180Y-84039502D01*
X69834494Y-83980537D01*
X69931185Y-83901185D01*
X70010537Y-83804494D01*
X70069502Y-83694180D01*
X70105812Y-83574482D01*
X70118072Y-83450000D01*
X70115000Y-82835750D01*
X69956250Y-82677000D01*
X68707000Y-82677000D01*
X68453000Y-82677000D01*
X68433000Y-82677000D01*
X68433000Y-82423000D01*
X68453000Y-82423000D01*
X68453000Y-81173750D01*
X68707000Y-81173750D01*
X68707000Y-82423000D01*
X69956250Y-82423000D01*
X70115000Y-82264250D01*
X70118072Y-81650000D01*
X70105812Y-81525518D01*
X70069502Y-81405820D01*
X70010537Y-81295506D01*
X69931185Y-81198815D01*
X69834494Y-81119463D01*
X69724180Y-81060498D01*
X69604482Y-81024188D01*
X69480000Y-81011928D01*
X68865750Y-81015000D01*
X68707000Y-81173750D01*
X68453000Y-81173750D01*
X68294250Y-81015000D01*
X67680000Y-81011928D01*
X67555518Y-81024188D01*
X67435820Y-81060498D01*
X67325506Y-81119463D01*
X67228815Y-81198815D01*
X67149463Y-81295506D01*
X67090498Y-81405820D01*
X67084944Y-81424127D01*
X67018505Y-81357688D01*
X66767095Y-81189701D01*
X66487743Y-81073989D01*
X66191184Y-81015000D01*
X65888816Y-81015000D01*
X65592257Y-81073989D01*
X65312905Y-81189701D01*
X65061495Y-81357688D01*
X64847688Y-81571495D01*
X64701687Y-81790000D01*
X62238178Y-81790000D01*
X62113475Y-81603368D01*
X61906632Y-81396525D01*
X61732240Y-81280000D01*
X61906632Y-81163475D01*
X62113475Y-80956632D01*
X62275990Y-80713411D01*
X62387932Y-80443158D01*
X62445000Y-80156260D01*
X62445000Y-79863740D01*
X62391544Y-79594999D01*
X64637679Y-79594999D01*
X64675001Y-79598675D01*
X64712323Y-79594999D01*
X64712334Y-79594999D01*
X64823987Y-79584002D01*
X64967248Y-79540545D01*
X65099277Y-79469973D01*
X65215002Y-79375000D01*
X65238805Y-79345996D01*
X65631070Y-78953731D01*
X65888816Y-79005000D01*
X66191184Y-79005000D01*
X66487743Y-78946011D01*
X66767095Y-78830299D01*
X67018505Y-78662312D01*
X67084944Y-78595873D01*
X67090498Y-78614180D01*
X67149463Y-78724494D01*
X67228815Y-78821185D01*
X67325506Y-78900537D01*
X67435820Y-78959502D01*
X67555518Y-78995812D01*
X67680000Y-79008072D01*
X68294250Y-79005000D01*
X68453000Y-78846250D01*
X68453000Y-77597000D01*
X68707000Y-77597000D01*
X68707000Y-78846250D01*
X68865750Y-79005000D01*
X69480000Y-79008072D01*
X69604482Y-78995812D01*
X69724180Y-78959502D01*
X69834494Y-78900537D01*
X69931185Y-78821185D01*
X70010537Y-78724494D01*
X70069502Y-78614180D01*
X70105812Y-78494482D01*
X70118072Y-78370000D01*
X70115000Y-77755750D01*
X69956250Y-77597000D01*
X68707000Y-77597000D01*
X68453000Y-77597000D01*
X68433000Y-77597000D01*
X68433000Y-77343000D01*
X68453000Y-77343000D01*
X68453000Y-76093750D01*
X68707000Y-76093750D01*
X68707000Y-77343000D01*
X69956250Y-77343000D01*
X70115000Y-77184250D01*
X70118072Y-76570000D01*
X70105812Y-76445518D01*
X70069502Y-76325820D01*
X70010537Y-76215506D01*
X69931185Y-76118815D01*
X69834494Y-76039463D01*
X69724180Y-75980498D01*
X69604482Y-75944188D01*
X69480000Y-75931928D01*
X68865750Y-75935000D01*
X68707000Y-76093750D01*
X68453000Y-76093750D01*
X68294250Y-75935000D01*
X67680000Y-75931928D01*
X67555518Y-75944188D01*
X67435820Y-75980498D01*
X67325506Y-76039463D01*
X67228815Y-76118815D01*
X67149463Y-76215506D01*
X67090498Y-76325820D01*
X67084944Y-76344127D01*
X67018505Y-76277688D01*
X66767095Y-76109701D01*
X66487743Y-75993989D01*
X66191184Y-75935000D01*
X65888816Y-75935000D01*
X65592257Y-75993989D01*
X65312905Y-76109701D01*
X65061495Y-76277688D01*
X64847688Y-76491495D01*
X64679701Y-76742905D01*
X64563989Y-77022257D01*
X64505000Y-77318816D01*
X64505000Y-77621184D01*
X64556269Y-77878930D01*
X64360200Y-78074999D01*
X62316753Y-78074999D01*
X62387932Y-77903158D01*
X62445000Y-77616260D01*
X62445000Y-77323740D01*
X62387932Y-77036842D01*
X62275990Y-76766589D01*
X62113475Y-76523368D01*
X61906632Y-76316525D01*
X61732240Y-76200000D01*
X61906632Y-76083475D01*
X62113475Y-75876632D01*
X62275990Y-75633411D01*
X62387932Y-75363158D01*
X62445000Y-75076260D01*
X62445000Y-74783740D01*
X62387932Y-74496842D01*
X62275990Y-74226589D01*
X62113475Y-73983368D01*
X61906632Y-73776525D01*
X61732240Y-73660000D01*
X61906632Y-73543475D01*
X62113475Y-73336632D01*
X62275990Y-73093411D01*
X62387932Y-72823158D01*
X62445000Y-72536260D01*
X62445000Y-72243740D01*
X62387932Y-71956842D01*
X62275990Y-71686589D01*
X62113475Y-71443368D01*
X61906632Y-71236525D01*
X61732240Y-71120000D01*
X61906632Y-71003475D01*
X62113475Y-70796632D01*
X62275990Y-70553411D01*
X62387932Y-70283158D01*
X62445000Y-69996260D01*
X62445000Y-69703740D01*
X62387932Y-69416842D01*
X62275990Y-69146589D01*
X62113475Y-68903368D01*
X61906632Y-68696525D01*
X61732240Y-68580000D01*
X61906632Y-68463475D01*
X62113475Y-68256632D01*
X62275990Y-68013411D01*
X62387932Y-67743158D01*
X62445000Y-67456260D01*
X62445000Y-67172408D01*
X65913000Y-67172408D01*
X65913000Y-67447592D01*
X65966686Y-67717490D01*
X66071995Y-67971727D01*
X66224880Y-68200535D01*
X66419465Y-68395120D01*
X66648273Y-68548005D01*
X66725515Y-68580000D01*
X66648273Y-68611995D01*
X66419465Y-68764880D01*
X66224880Y-68959465D01*
X66071995Y-69188273D01*
X65966686Y-69442510D01*
X65913000Y-69712408D01*
X65913000Y-69987592D01*
X65966686Y-70257490D01*
X66071995Y-70511727D01*
X66224880Y-70740535D01*
X66419465Y-70935120D01*
X66648273Y-71088005D01*
X66902510Y-71193314D01*
X67172408Y-71247000D01*
X67447592Y-71247000D01*
X67717490Y-71193314D01*
X67971727Y-71088005D01*
X68200535Y-70935120D01*
X68395120Y-70740535D01*
X68548005Y-70511727D01*
X68653314Y-70257490D01*
X68707000Y-69987592D01*
X68707000Y-69712408D01*
X68653314Y-69442510D01*
X68548005Y-69188273D01*
X68395120Y-68959465D01*
X68200535Y-68764880D01*
X67971727Y-68611995D01*
X67894485Y-68580000D01*
X67971727Y-68548005D01*
X68200535Y-68395120D01*
X68395120Y-68200535D01*
X68548005Y-67971727D01*
X68653314Y-67717490D01*
X68707000Y-67447592D01*
X68707000Y-67172408D01*
X76073000Y-67172408D01*
X76073000Y-67447592D01*
X76126686Y-67717490D01*
X76231995Y-67971727D01*
X76384880Y-68200535D01*
X76579465Y-68395120D01*
X76808273Y-68548005D01*
X76885515Y-68580000D01*
X76808273Y-68611995D01*
X76579465Y-68764880D01*
X76384880Y-68959465D01*
X76231995Y-69188273D01*
X76126686Y-69442510D01*
X76073000Y-69712408D01*
X76073000Y-69987592D01*
X76126686Y-70257490D01*
X76231995Y-70511727D01*
X76384880Y-70740535D01*
X76579465Y-70935120D01*
X76808273Y-71088005D01*
X77062510Y-71193314D01*
X77332408Y-71247000D01*
X77607592Y-71247000D01*
X77877490Y-71193314D01*
X78131727Y-71088005D01*
X78360535Y-70935120D01*
X78555120Y-70740535D01*
X78708005Y-70511727D01*
X78813314Y-70257490D01*
X78867000Y-69987592D01*
X78867000Y-69712408D01*
X78813314Y-69442510D01*
X78708005Y-69188273D01*
X78555120Y-68959465D01*
X78360535Y-68764880D01*
X78131727Y-68611995D01*
X78054485Y-68580000D01*
X78131727Y-68548005D01*
X78360535Y-68395120D01*
X78555120Y-68200535D01*
X78708005Y-67971727D01*
X78813314Y-67717490D01*
X78867000Y-67447592D01*
X78867000Y-67172408D01*
X78823379Y-66953110D01*
X82378524Y-66953110D01*
X82499845Y-67183000D01*
X83693000Y-67183000D01*
X83693000Y-65989186D01*
X83947000Y-65989186D01*
X83947000Y-67183000D01*
X85140155Y-67183000D01*
X85261476Y-66953110D01*
X85216825Y-66805901D01*
X85091641Y-66543080D01*
X84917588Y-66309731D01*
X84701355Y-66114822D01*
X84451252Y-65965843D01*
X84176891Y-65868519D01*
X83947000Y-65989186D01*
X83693000Y-65989186D01*
X83463109Y-65868519D01*
X83188748Y-65965843D01*
X82938645Y-66114822D01*
X82722412Y-66309731D01*
X82548359Y-66543080D01*
X82423175Y-66805901D01*
X82378524Y-66953110D01*
X78823379Y-66953110D01*
X78813314Y-66902510D01*
X78708005Y-66648273D01*
X78555120Y-66419465D01*
X78360535Y-66224880D01*
X78131727Y-66071995D01*
X78060057Y-66042308D01*
X78073023Y-66037636D01*
X78188980Y-65975656D01*
X78255960Y-65735565D01*
X77470000Y-64949605D01*
X76684040Y-65735565D01*
X76751020Y-65975656D01*
X76886760Y-66039485D01*
X76808273Y-66071995D01*
X76579465Y-66224880D01*
X76384880Y-66419465D01*
X76231995Y-66648273D01*
X76126686Y-66902510D01*
X76073000Y-67172408D01*
X68707000Y-67172408D01*
X68653314Y-66902510D01*
X68548005Y-66648273D01*
X68395120Y-66419465D01*
X68200535Y-66224880D01*
X67971727Y-66071995D01*
X67900057Y-66042308D01*
X67913023Y-66037636D01*
X68028980Y-65975656D01*
X68095960Y-65735565D01*
X67310000Y-64949605D01*
X66524040Y-65735565D01*
X66591020Y-65975656D01*
X66726760Y-66039485D01*
X66648273Y-66071995D01*
X66419465Y-66224880D01*
X66224880Y-66419465D01*
X66071995Y-66648273D01*
X65966686Y-66902510D01*
X65913000Y-67172408D01*
X62445000Y-67172408D01*
X62445000Y-67163740D01*
X62387932Y-66876842D01*
X62275990Y-66606589D01*
X62113475Y-66363368D01*
X61906632Y-66156525D01*
X61732240Y-66040000D01*
X61906632Y-65923475D01*
X62113475Y-65716632D01*
X62275990Y-65473411D01*
X62387932Y-65203158D01*
X62445000Y-64916260D01*
X62445000Y-64842017D01*
X65908090Y-64842017D01*
X65949078Y-65114133D01*
X66042364Y-65373023D01*
X66104344Y-65488980D01*
X66344435Y-65555960D01*
X67130395Y-64770000D01*
X67489605Y-64770000D01*
X68275565Y-65555960D01*
X68515656Y-65488980D01*
X68632756Y-65239952D01*
X68699023Y-64972865D01*
X68705157Y-64842017D01*
X76068090Y-64842017D01*
X76109078Y-65114133D01*
X76202364Y-65373023D01*
X76264344Y-65488980D01*
X76504435Y-65555960D01*
X77290395Y-64770000D01*
X77649605Y-64770000D01*
X78435565Y-65555960D01*
X78675656Y-65488980D01*
X78792756Y-65239952D01*
X78859023Y-64972865D01*
X78871910Y-64697983D01*
X78830922Y-64425867D01*
X78737636Y-64166977D01*
X78675656Y-64051020D01*
X78435565Y-63984040D01*
X77649605Y-64770000D01*
X77290395Y-64770000D01*
X76504435Y-63984040D01*
X76264344Y-64051020D01*
X76147244Y-64300048D01*
X76080977Y-64567135D01*
X76068090Y-64842017D01*
X68705157Y-64842017D01*
X68711910Y-64697983D01*
X68670922Y-64425867D01*
X68577636Y-64166977D01*
X68515656Y-64051020D01*
X68275565Y-63984040D01*
X67489605Y-64770000D01*
X67130395Y-64770000D01*
X66344435Y-63984040D01*
X66104344Y-64051020D01*
X65987244Y-64300048D01*
X65920977Y-64567135D01*
X65908090Y-64842017D01*
X62445000Y-64842017D01*
X62445000Y-64623740D01*
X62387932Y-64336842D01*
X62275990Y-64066589D01*
X62113475Y-63823368D01*
X61906632Y-63616525D01*
X61724466Y-63494805D01*
X61841355Y-63425178D01*
X62057588Y-63230269D01*
X62231641Y-62996920D01*
X62356825Y-62734099D01*
X62401476Y-62586890D01*
X62280155Y-62357000D01*
X61087000Y-62357000D01*
X61087000Y-62377000D01*
X60833000Y-62377000D01*
X60833000Y-62357000D01*
X60813000Y-62357000D01*
X60813000Y-62103000D01*
X60833000Y-62103000D01*
X60833000Y-62083000D01*
X61087000Y-62083000D01*
X61087000Y-62103000D01*
X62280155Y-62103000D01*
X62401476Y-61873110D01*
X62356825Y-61725901D01*
X62231641Y-61463080D01*
X62057588Y-61229731D01*
X61841355Y-61034822D01*
X61724466Y-60965195D01*
X61906632Y-60843475D01*
X62113475Y-60636632D01*
X62275990Y-60393411D01*
X62387932Y-60123158D01*
X62445000Y-59836260D01*
X62445000Y-59543740D01*
X62387932Y-59256842D01*
X62275990Y-58986589D01*
X62113475Y-58743368D01*
X61906632Y-58536525D01*
X61732240Y-58420000D01*
X61906632Y-58303475D01*
X62113475Y-58096632D01*
X62275990Y-57853411D01*
X62387932Y-57583158D01*
X62445000Y-57296260D01*
X62445000Y-57003740D01*
X62387932Y-56716842D01*
X62275990Y-56446589D01*
X62236843Y-56388000D01*
X65909928Y-56388000D01*
X65909928Y-57912000D01*
X65922188Y-58036482D01*
X65958498Y-58156180D01*
X66017463Y-58266494D01*
X66096815Y-58363185D01*
X66193506Y-58442537D01*
X66303820Y-58501502D01*
X66423518Y-58537812D01*
X66507465Y-58546080D01*
X66419465Y-58604880D01*
X66224880Y-58799465D01*
X66071995Y-59028273D01*
X65966686Y-59282510D01*
X65913000Y-59552408D01*
X65913000Y-59827592D01*
X65966686Y-60097490D01*
X66071995Y-60351727D01*
X66224880Y-60580535D01*
X66419465Y-60775120D01*
X66648273Y-60928005D01*
X66725515Y-60960000D01*
X66648273Y-60991995D01*
X66419465Y-61144880D01*
X66224880Y-61339465D01*
X66071995Y-61568273D01*
X65966686Y-61822510D01*
X65913000Y-62092408D01*
X65913000Y-62367592D01*
X65966686Y-62637490D01*
X66071995Y-62891727D01*
X66224880Y-63120535D01*
X66419465Y-63315120D01*
X66648273Y-63468005D01*
X66719943Y-63497692D01*
X66706977Y-63502364D01*
X66591020Y-63564344D01*
X66524040Y-63804435D01*
X67310000Y-64590395D01*
X68095960Y-63804435D01*
X68028980Y-63564344D01*
X67893240Y-63500515D01*
X67971727Y-63468005D01*
X68200535Y-63315120D01*
X68395120Y-63120535D01*
X68548005Y-62891727D01*
X68653314Y-62637490D01*
X68707000Y-62367592D01*
X68707000Y-62092408D01*
X68653314Y-61822510D01*
X68548005Y-61568273D01*
X68395120Y-61339465D01*
X68200535Y-61144880D01*
X67971727Y-60991995D01*
X67894485Y-60960000D01*
X67971727Y-60928005D01*
X68200535Y-60775120D01*
X68395120Y-60580535D01*
X68548005Y-60351727D01*
X68653314Y-60097490D01*
X68707000Y-59827592D01*
X68707000Y-59552408D01*
X68653314Y-59282510D01*
X68548005Y-59028273D01*
X68395120Y-58799465D01*
X68200535Y-58604880D01*
X68112535Y-58546080D01*
X68196482Y-58537812D01*
X68316180Y-58501502D01*
X68426494Y-58442537D01*
X68523185Y-58363185D01*
X68602537Y-58266494D01*
X68661502Y-58156180D01*
X68697812Y-58036482D01*
X68710072Y-57912000D01*
X68710072Y-56388000D01*
X76069928Y-56388000D01*
X76069928Y-57912000D01*
X76082188Y-58036482D01*
X76118498Y-58156180D01*
X76177463Y-58266494D01*
X76256815Y-58363185D01*
X76353506Y-58442537D01*
X76463820Y-58501502D01*
X76583518Y-58537812D01*
X76667465Y-58546080D01*
X76579465Y-58604880D01*
X76384880Y-58799465D01*
X76231995Y-59028273D01*
X76126686Y-59282510D01*
X76073000Y-59552408D01*
X76073000Y-59827592D01*
X76126686Y-60097490D01*
X76231995Y-60351727D01*
X76384880Y-60580535D01*
X76579465Y-60775120D01*
X76808273Y-60928005D01*
X76885515Y-60960000D01*
X76808273Y-60991995D01*
X76579465Y-61144880D01*
X76384880Y-61339465D01*
X76231995Y-61568273D01*
X76126686Y-61822510D01*
X76073000Y-62092408D01*
X76073000Y-62367592D01*
X76126686Y-62637490D01*
X76231995Y-62891727D01*
X76384880Y-63120535D01*
X76579465Y-63315120D01*
X76808273Y-63468005D01*
X76879943Y-63497692D01*
X76866977Y-63502364D01*
X76751020Y-63564344D01*
X76684040Y-63804435D01*
X77470000Y-64590395D01*
X78255960Y-63804435D01*
X78188980Y-63564344D01*
X78053240Y-63500515D01*
X78131727Y-63468005D01*
X78360535Y-63315120D01*
X78555120Y-63120535D01*
X78708005Y-62891727D01*
X78813314Y-62637490D01*
X78867000Y-62367592D01*
X78867000Y-62092408D01*
X78813314Y-61822510D01*
X78708005Y-61568273D01*
X78555120Y-61339465D01*
X78360535Y-61144880D01*
X78131727Y-60991995D01*
X78054485Y-60960000D01*
X78131727Y-60928005D01*
X78360535Y-60775120D01*
X78555120Y-60580535D01*
X78708005Y-60351727D01*
X78813314Y-60097490D01*
X78867000Y-59827592D01*
X78867000Y-59552408D01*
X78813314Y-59282510D01*
X78708005Y-59028273D01*
X78555120Y-58799465D01*
X78360535Y-58604880D01*
X78272535Y-58546080D01*
X78356482Y-58537812D01*
X78476180Y-58501502D01*
X78586494Y-58442537D01*
X78683185Y-58363185D01*
X78762537Y-58266494D01*
X78821502Y-58156180D01*
X78857812Y-58036482D01*
X78870072Y-57912000D01*
X78870072Y-56388000D01*
X78857812Y-56263518D01*
X78821502Y-56143820D01*
X78762537Y-56033506D01*
X78683185Y-55936815D01*
X78586494Y-55857463D01*
X78476180Y-55798498D01*
X78356482Y-55762188D01*
X78232000Y-55749928D01*
X76708000Y-55749928D01*
X76583518Y-55762188D01*
X76463820Y-55798498D01*
X76353506Y-55857463D01*
X76256815Y-55936815D01*
X76177463Y-56033506D01*
X76118498Y-56143820D01*
X76082188Y-56263518D01*
X76069928Y-56388000D01*
X68710072Y-56388000D01*
X68697812Y-56263518D01*
X68661502Y-56143820D01*
X68602537Y-56033506D01*
X68523185Y-55936815D01*
X68426494Y-55857463D01*
X68316180Y-55798498D01*
X68196482Y-55762188D01*
X68072000Y-55749928D01*
X66548000Y-55749928D01*
X66423518Y-55762188D01*
X66303820Y-55798498D01*
X66193506Y-55857463D01*
X66096815Y-55936815D01*
X66017463Y-56033506D01*
X65958498Y-56143820D01*
X65922188Y-56263518D01*
X65909928Y-56388000D01*
X62236843Y-56388000D01*
X62113475Y-56203368D01*
X61906632Y-55996525D01*
X61663411Y-55834010D01*
X61393158Y-55722068D01*
X61106260Y-55665000D01*
X60813740Y-55665000D01*
X60526842Y-55722068D01*
X60355001Y-55793247D01*
X60355001Y-43042323D01*
X60358677Y-43005000D01*
X60355001Y-42967677D01*
X60355001Y-42967668D01*
X60344004Y-42856015D01*
X60300547Y-42712754D01*
X60229975Y-42580725D01*
X60216812Y-42564686D01*
X60158800Y-42493997D01*
X60158796Y-42493993D01*
X60135002Y-42465000D01*
X60106010Y-42441207D01*
X58855000Y-41190198D01*
X58855000Y-39570176D01*
X58831487Y-39331444D01*
X58759759Y-39094990D01*
X59610189Y-39094990D01*
X60601928Y-40086730D01*
X60601928Y-42620000D01*
X60614188Y-42744482D01*
X60650498Y-42864180D01*
X60709463Y-42974494D01*
X60788815Y-43071185D01*
X60885506Y-43150537D01*
X60995820Y-43209502D01*
X61115518Y-43245812D01*
X61240000Y-43258072D01*
X63220000Y-43258072D01*
X63344482Y-43245812D01*
X63464180Y-43209502D01*
X63574494Y-43150537D01*
X63671185Y-43071185D01*
X63750537Y-42974494D01*
X63809502Y-42864180D01*
X63845812Y-42744482D01*
X63858072Y-42620000D01*
X63858072Y-41709823D01*
X67035000Y-41709823D01*
X67058513Y-41948555D01*
X67151432Y-42254868D01*
X67302325Y-42537169D01*
X67505392Y-42784608D01*
X67752830Y-42987675D01*
X68035131Y-43138568D01*
X68341444Y-43231487D01*
X68660000Y-43262862D01*
X68978555Y-43231487D01*
X69284868Y-43138568D01*
X69567169Y-42987675D01*
X69814608Y-42784608D01*
X70017675Y-42537170D01*
X70168568Y-42254869D01*
X70261487Y-41948556D01*
X70285000Y-41709824D01*
X70285000Y-39570176D01*
X70261487Y-39331444D01*
X70168568Y-39025131D01*
X70017675Y-38742830D01*
X69949699Y-38660000D01*
X72031928Y-38660000D01*
X72031928Y-42620000D01*
X72044188Y-42744482D01*
X72080498Y-42864180D01*
X72139463Y-42974494D01*
X72218815Y-43071185D01*
X72315506Y-43150537D01*
X72425820Y-43209502D01*
X72545518Y-43245812D01*
X72670000Y-43258072D01*
X74650000Y-43258072D01*
X74774482Y-43245812D01*
X74894180Y-43209502D01*
X75004494Y-43150537D01*
X75101185Y-43071185D01*
X75180537Y-42974494D01*
X75239502Y-42864180D01*
X75275812Y-42744482D01*
X75288072Y-42620000D01*
X75288072Y-41709823D01*
X78465000Y-41709823D01*
X78488513Y-41948555D01*
X78581432Y-42254868D01*
X78732325Y-42537169D01*
X78935392Y-42784608D01*
X79182830Y-42987675D01*
X79465131Y-43138568D01*
X79771444Y-43231487D01*
X80090000Y-43262862D01*
X80408555Y-43231487D01*
X80714868Y-43138568D01*
X80997169Y-42987675D01*
X81244608Y-42784608D01*
X81447675Y-42537170D01*
X81598568Y-42254869D01*
X81691487Y-41948556D01*
X81715000Y-41709824D01*
X81715000Y-39570176D01*
X81691487Y-39331444D01*
X81598568Y-39025131D01*
X81447675Y-38742830D01*
X81379699Y-38660000D01*
X83461928Y-38660000D01*
X83461928Y-42620000D01*
X83474188Y-42744482D01*
X83510498Y-42864180D01*
X83569463Y-42974494D01*
X83648815Y-43071185D01*
X83745506Y-43150537D01*
X83855820Y-43209502D01*
X83975518Y-43245812D01*
X84100000Y-43258072D01*
X86080000Y-43258072D01*
X86204482Y-43245812D01*
X86324180Y-43209502D01*
X86434494Y-43150537D01*
X86531185Y-43071185D01*
X86610537Y-42974494D01*
X86669502Y-42864180D01*
X86705812Y-42744482D01*
X86718072Y-42620000D01*
X86718072Y-38660000D01*
X86705812Y-38535518D01*
X86669502Y-38415820D01*
X86610537Y-38305506D01*
X86531185Y-38208815D01*
X86434494Y-38129463D01*
X86324180Y-38070498D01*
X86204482Y-38034188D01*
X86080000Y-38021928D01*
X84100000Y-38021928D01*
X83975518Y-38034188D01*
X83855820Y-38070498D01*
X83745506Y-38129463D01*
X83648815Y-38208815D01*
X83569463Y-38305506D01*
X83510498Y-38415820D01*
X83474188Y-38535518D01*
X83461928Y-38660000D01*
X81379699Y-38660000D01*
X81244608Y-38495392D01*
X80997170Y-38292325D01*
X80714869Y-38141432D01*
X80408556Y-38048513D01*
X80090000Y-38017138D01*
X79771445Y-38048513D01*
X79465132Y-38141432D01*
X79182831Y-38292325D01*
X78935393Y-38495392D01*
X78732326Y-38742830D01*
X78581433Y-39025131D01*
X78488514Y-39331444D01*
X78465001Y-39570176D01*
X78465000Y-41709823D01*
X75288072Y-41709823D01*
X75288072Y-38660000D01*
X75275812Y-38535518D01*
X75239502Y-38415820D01*
X75180537Y-38305506D01*
X75101185Y-38208815D01*
X75004494Y-38129463D01*
X74894180Y-38070498D01*
X74774482Y-38034188D01*
X74650000Y-38021928D01*
X72670000Y-38021928D01*
X72545518Y-38034188D01*
X72425820Y-38070498D01*
X72315506Y-38129463D01*
X72218815Y-38208815D01*
X72139463Y-38305506D01*
X72080498Y-38415820D01*
X72044188Y-38535518D01*
X72031928Y-38660000D01*
X69949699Y-38660000D01*
X69814608Y-38495392D01*
X69567170Y-38292325D01*
X69284869Y-38141432D01*
X68978556Y-38048513D01*
X68660000Y-38017138D01*
X68341445Y-38048513D01*
X68035132Y-38141432D01*
X67752831Y-38292325D01*
X67505393Y-38495392D01*
X67302326Y-38742830D01*
X67151433Y-39025131D01*
X67058514Y-39331444D01*
X67035001Y-39570176D01*
X67035000Y-41709823D01*
X63858072Y-41709823D01*
X63858072Y-38660000D01*
X63845812Y-38535518D01*
X63809502Y-38415820D01*
X63750537Y-38305506D01*
X63671185Y-38208815D01*
X63574494Y-38129463D01*
X63464180Y-38070498D01*
X63344482Y-38034188D01*
X63220000Y-38021928D01*
X61240000Y-38021928D01*
X61115518Y-38034188D01*
X60995820Y-38070498D01*
X60885506Y-38129463D01*
X60835392Y-38170590D01*
X60488794Y-37823992D01*
X60464991Y-37794989D01*
X60349266Y-37700016D01*
X60217237Y-37629444D01*
X60073976Y-37585987D01*
X59962323Y-37574990D01*
X59962312Y-37574990D01*
X59924990Y-37571314D01*
X59887668Y-37574990D01*
X56722628Y-37574990D01*
X56685305Y-37571314D01*
X56647982Y-37574990D01*
X56647973Y-37574990D01*
X56536320Y-37585987D01*
X56393059Y-37629444D01*
X56261030Y-37700016D01*
X56145305Y-37794989D01*
X56121507Y-37823988D01*
X55403992Y-38541503D01*
X55374989Y-38565305D01*
X55324164Y-38627236D01*
X55280016Y-38681030D01*
X55246983Y-38742830D01*
X55209444Y-38813060D01*
X55165987Y-38956321D01*
X55154990Y-39067974D01*
X55154990Y-39067984D01*
X55151314Y-39105306D01*
X53467000Y-39105306D01*
X53467000Y-35687000D01*
X88773000Y-35687000D01*
X88773000Y-107823000D01*
%TA.AperFunction,Conductor*%
D22*
G36*
X88773000Y-107823000D02*
G01*
X53467000Y-107823000D01*
X53467000Y-39105306D01*
X55151314Y-39105306D01*
X55154990Y-39142628D01*
X55154991Y-64767657D01*
X55151314Y-64804990D01*
X55154991Y-64842323D01*
X55165558Y-64949605D01*
X55165988Y-64953975D01*
X55209444Y-65097236D01*
X55280016Y-65229266D01*
X55351191Y-65315992D01*
X55374990Y-65344991D01*
X55403988Y-65368789D01*
X56978790Y-66943592D01*
X56935000Y-67163740D01*
X56935000Y-67456260D01*
X56992068Y-67743158D01*
X57104010Y-68013411D01*
X57266525Y-68256632D01*
X57473368Y-68463475D01*
X57647760Y-68580000D01*
X57473368Y-68696525D01*
X57266525Y-68903368D01*
X57104010Y-69146589D01*
X56992068Y-69416842D01*
X56935000Y-69703740D01*
X56935000Y-69996260D01*
X56992068Y-70283158D01*
X57104010Y-70553411D01*
X57266525Y-70796632D01*
X57473368Y-71003475D01*
X57647760Y-71120000D01*
X57473368Y-71236525D01*
X57266525Y-71443368D01*
X57104010Y-71686589D01*
X56992068Y-71956842D01*
X56935000Y-72243740D01*
X56935000Y-72536260D01*
X56992068Y-72823158D01*
X57104010Y-73093411D01*
X57266525Y-73336632D01*
X57473368Y-73543475D01*
X57647760Y-73660000D01*
X57473368Y-73776525D01*
X57266525Y-73983368D01*
X57104010Y-74226589D01*
X56992068Y-74496842D01*
X56935000Y-74783740D01*
X56935000Y-75076260D01*
X56992068Y-75363158D01*
X57104010Y-75633411D01*
X57266525Y-75876632D01*
X57473368Y-76083475D01*
X57647760Y-76200000D01*
X57473368Y-76316525D01*
X57266525Y-76523368D01*
X57104010Y-76766589D01*
X56992068Y-77036842D01*
X56935000Y-77323740D01*
X56935000Y-77616260D01*
X56992068Y-77903158D01*
X57104010Y-78173411D01*
X57266525Y-78416632D01*
X57473368Y-78623475D01*
X57647760Y-78740000D01*
X57473368Y-78856525D01*
X57266525Y-79063368D01*
X57104010Y-79306589D01*
X56992068Y-79576842D01*
X56935000Y-79863740D01*
X56935000Y-80156260D01*
X56992068Y-80443158D01*
X57104010Y-80713411D01*
X57266525Y-80956632D01*
X57473368Y-81163475D01*
X57647760Y-81280000D01*
X57473368Y-81396525D01*
X57266525Y-81603368D01*
X57104010Y-81846589D01*
X56992068Y-82116842D01*
X56935000Y-82403740D01*
X56935000Y-82696260D01*
X56992068Y-82983158D01*
X57104010Y-83253411D01*
X57266525Y-83496632D01*
X57473368Y-83703475D01*
X57647760Y-83820000D01*
X57473368Y-83936525D01*
X57266525Y-84143368D01*
X57104010Y-84386589D01*
X56992068Y-84656842D01*
X56935000Y-84943740D01*
X56935000Y-85236260D01*
X56992068Y-85523158D01*
X57104010Y-85793411D01*
X57266525Y-86036632D01*
X57473368Y-86243475D01*
X57647760Y-86360000D01*
X57473368Y-86476525D01*
X57266525Y-86683368D01*
X57104010Y-86926589D01*
X56992068Y-87196842D01*
X56935000Y-87483740D01*
X56935000Y-87776260D01*
X56992068Y-88063158D01*
X57104010Y-88333411D01*
X57266525Y-88576632D01*
X57473368Y-88783475D01*
X57647760Y-88900000D01*
X57473368Y-89016525D01*
X57266525Y-89223368D01*
X57104010Y-89466589D01*
X56992068Y-89736842D01*
X56935000Y-90023740D01*
X56935000Y-90316260D01*
X56992068Y-90603158D01*
X57104010Y-90873411D01*
X57266525Y-91116632D01*
X57473368Y-91323475D01*
X57647760Y-91440000D01*
X57473368Y-91556525D01*
X57266525Y-91763368D01*
X57104010Y-92006589D01*
X56992068Y-92276842D01*
X56935000Y-92563740D01*
X56935000Y-92856260D01*
X56992068Y-93143158D01*
X57104010Y-93413411D01*
X57266525Y-93656632D01*
X57473368Y-93863475D01*
X57647760Y-93980000D01*
X57473368Y-94096525D01*
X57266525Y-94303368D01*
X57104010Y-94546589D01*
X56992068Y-94816842D01*
X56935000Y-95103740D01*
X56935000Y-95396260D01*
X56992068Y-95683158D01*
X57104010Y-95953411D01*
X57266525Y-96196632D01*
X57473368Y-96403475D01*
X57647760Y-96520000D01*
X57473368Y-96636525D01*
X57266525Y-96843368D01*
X57104010Y-97086589D01*
X56992068Y-97356842D01*
X56935000Y-97643740D01*
X56935000Y-97936260D01*
X56992068Y-98223158D01*
X57104010Y-98493411D01*
X57266525Y-98736632D01*
X57473368Y-98943475D01*
X57647760Y-99060000D01*
X57473368Y-99176525D01*
X57266525Y-99383368D01*
X57104010Y-99626589D01*
X56992068Y-99896842D01*
X56935000Y-100183740D01*
X56935000Y-100476260D01*
X56992068Y-100763158D01*
X57104010Y-101033411D01*
X57266525Y-101276632D01*
X57473368Y-101483475D01*
X57647760Y-101600000D01*
X57473368Y-101716525D01*
X57266525Y-101923368D01*
X57104010Y-102166589D01*
X56992068Y-102436842D01*
X56935000Y-102723740D01*
X56935000Y-103016260D01*
X56992068Y-103303158D01*
X57104010Y-103573411D01*
X57266525Y-103816632D01*
X57473368Y-104023475D01*
X57647760Y-104140000D01*
X57473368Y-104256525D01*
X57266525Y-104463368D01*
X57104010Y-104706589D01*
X56992068Y-104976842D01*
X56935000Y-105263740D01*
X56935000Y-105556260D01*
X56992068Y-105843158D01*
X57104010Y-106113411D01*
X57266525Y-106356632D01*
X57473368Y-106563475D01*
X57716589Y-106725990D01*
X57986842Y-106837932D01*
X58273740Y-106895000D01*
X58566260Y-106895000D01*
X58853158Y-106837932D01*
X59123411Y-106725990D01*
X59366632Y-106563475D01*
X59573475Y-106356632D01*
X59690000Y-106182240D01*
X59806525Y-106356632D01*
X60013368Y-106563475D01*
X60256589Y-106725990D01*
X60526842Y-106837932D01*
X60813740Y-106895000D01*
X61106260Y-106895000D01*
X61393158Y-106837932D01*
X61663411Y-106725990D01*
X61906632Y-106563475D01*
X62113475Y-106356632D01*
X62178042Y-106260000D01*
X82331928Y-106260000D01*
X82344188Y-106384482D01*
X82380498Y-106504180D01*
X82439463Y-106614494D01*
X82518815Y-106711185D01*
X82615506Y-106790537D01*
X82725820Y-106849502D01*
X82845518Y-106885812D01*
X82970000Y-106898072D01*
X83534250Y-106895000D01*
X83693000Y-106736250D01*
X83693000Y-105537000D01*
X83947000Y-105537000D01*
X83947000Y-106736250D01*
X84105750Y-106895000D01*
X84670000Y-106898072D01*
X84794482Y-106885812D01*
X84914180Y-106849502D01*
X85024494Y-106790537D01*
X85121185Y-106711185D01*
X85200537Y-106614494D01*
X85259502Y-106504180D01*
X85295812Y-106384482D01*
X85308072Y-106260000D01*
X85305000Y-105695750D01*
X85146250Y-105537000D01*
X83947000Y-105537000D01*
X83693000Y-105537000D01*
X82493750Y-105537000D01*
X82335000Y-105695750D01*
X82331928Y-106260000D01*
X62178042Y-106260000D01*
X62275990Y-106113411D01*
X62387932Y-105843158D01*
X62445000Y-105556260D01*
X62445000Y-105263740D01*
X62387932Y-104976842D01*
X62275990Y-104706589D01*
X62178043Y-104560000D01*
X82331928Y-104560000D01*
X82335000Y-105124250D01*
X82493750Y-105283000D01*
X83693000Y-105283000D01*
X83693000Y-105263000D01*
X83947000Y-105263000D01*
X83947000Y-105283000D01*
X85146250Y-105283000D01*
X85305000Y-105124250D01*
X85308072Y-104560000D01*
X85295812Y-104435518D01*
X85259502Y-104315820D01*
X85200537Y-104205506D01*
X85121185Y-104108815D01*
X85024494Y-104029463D01*
X84914180Y-103970498D01*
X84841620Y-103948487D01*
X84973475Y-103816632D01*
X85135990Y-103573411D01*
X85247932Y-103303158D01*
X85305000Y-103016260D01*
X85305000Y-102723740D01*
X85247932Y-102436842D01*
X85135990Y-102166589D01*
X84973475Y-101923368D01*
X84766632Y-101716525D01*
X84592240Y-101600000D01*
X84766632Y-101483475D01*
X84973475Y-101276632D01*
X85135990Y-101033411D01*
X85247932Y-100763158D01*
X85305000Y-100476260D01*
X85305000Y-100183740D01*
X85247932Y-99896842D01*
X85135990Y-99626589D01*
X84973475Y-99383368D01*
X84766632Y-99176525D01*
X84592240Y-99060000D01*
X84766632Y-98943475D01*
X84973475Y-98736632D01*
X85135990Y-98493411D01*
X85247932Y-98223158D01*
X85305000Y-97936260D01*
X85305000Y-97643740D01*
X85247932Y-97356842D01*
X85135990Y-97086589D01*
X84973475Y-96843368D01*
X84766632Y-96636525D01*
X84584466Y-96514805D01*
X84701355Y-96445178D01*
X84917588Y-96250269D01*
X85091641Y-96016920D01*
X85216825Y-95754099D01*
X85261476Y-95606890D01*
X85140155Y-95377000D01*
X83947000Y-95377000D01*
X83947000Y-95397000D01*
X83693000Y-95397000D01*
X83693000Y-95377000D01*
X82499845Y-95377000D01*
X82378524Y-95606890D01*
X82423175Y-95754099D01*
X82548359Y-96016920D01*
X82722412Y-96250269D01*
X82938645Y-96445178D01*
X83055534Y-96514805D01*
X82873368Y-96636525D01*
X82666525Y-96843368D01*
X82504010Y-97086589D01*
X82392068Y-97356842D01*
X82335000Y-97643740D01*
X82335000Y-97936260D01*
X82392068Y-98223158D01*
X82504010Y-98493411D01*
X82666525Y-98736632D01*
X82873368Y-98943475D01*
X83047760Y-99060000D01*
X82873368Y-99176525D01*
X82666525Y-99383368D01*
X82504010Y-99626589D01*
X82392068Y-99896842D01*
X82335000Y-100183740D01*
X82335000Y-100476260D01*
X82392068Y-100763158D01*
X82504010Y-101033411D01*
X82666525Y-101276632D01*
X82873368Y-101483475D01*
X83047760Y-101600000D01*
X82873368Y-101716525D01*
X82666525Y-101923368D01*
X82504010Y-102166589D01*
X82392068Y-102436842D01*
X82335000Y-102723740D01*
X82335000Y-103016260D01*
X82392068Y-103303158D01*
X82504010Y-103573411D01*
X82666525Y-103816632D01*
X82798380Y-103948487D01*
X82725820Y-103970498D01*
X82615506Y-104029463D01*
X82518815Y-104108815D01*
X82439463Y-104205506D01*
X82380498Y-104315820D01*
X82344188Y-104435518D01*
X82331928Y-104560000D01*
X62178043Y-104560000D01*
X62113475Y-104463368D01*
X61906632Y-104256525D01*
X61732240Y-104140000D01*
X61906632Y-104023475D01*
X62113475Y-103816632D01*
X62275990Y-103573411D01*
X62387932Y-103303158D01*
X62445000Y-103016260D01*
X62445000Y-102723740D01*
X62387932Y-102436842D01*
X62275990Y-102166589D01*
X62113475Y-101923368D01*
X61906632Y-101716525D01*
X61732240Y-101600000D01*
X61906632Y-101483475D01*
X61921593Y-101468514D01*
X76135000Y-101468514D01*
X76135000Y-101731486D01*
X76186304Y-101989405D01*
X76286939Y-102232359D01*
X76433038Y-102451013D01*
X76618987Y-102636962D01*
X76837641Y-102783061D01*
X77080595Y-102883696D01*
X77338514Y-102935000D01*
X77601486Y-102935000D01*
X77859405Y-102883696D01*
X78102359Y-102783061D01*
X78321013Y-102636962D01*
X78506962Y-102451013D01*
X78653061Y-102232359D01*
X78753696Y-101989405D01*
X78805000Y-101731486D01*
X78805000Y-101468514D01*
X78753696Y-101210595D01*
X78653061Y-100967641D01*
X78506962Y-100748987D01*
X78321013Y-100563038D01*
X78102359Y-100416939D01*
X77859405Y-100316304D01*
X77601486Y-100265000D01*
X77338514Y-100265000D01*
X77080595Y-100316304D01*
X76837641Y-100416939D01*
X76618987Y-100563038D01*
X76433038Y-100748987D01*
X76286939Y-100967641D01*
X76186304Y-101210595D01*
X76135000Y-101468514D01*
X61921593Y-101468514D01*
X62113475Y-101276632D01*
X62275990Y-101033411D01*
X62387932Y-100763158D01*
X62445000Y-100476260D01*
X62445000Y-100183740D01*
X62387932Y-99896842D01*
X62275990Y-99626589D01*
X62113475Y-99383368D01*
X61906632Y-99176525D01*
X61732240Y-99060000D01*
X61906632Y-98943475D01*
X62113475Y-98736632D01*
X62275990Y-98493411D01*
X62387932Y-98223158D01*
X62445000Y-97936260D01*
X62445000Y-97643740D01*
X62387932Y-97356842D01*
X62275990Y-97086589D01*
X62113475Y-96843368D01*
X61906632Y-96636525D01*
X61732240Y-96520000D01*
X61906632Y-96403475D01*
X62113475Y-96196632D01*
X62275990Y-95953411D01*
X62387932Y-95683158D01*
X62445000Y-95396260D01*
X62445000Y-95103740D01*
X62387932Y-94816842D01*
X62275990Y-94546589D01*
X62113475Y-94303368D01*
X61906632Y-94096525D01*
X61732240Y-93980000D01*
X61906632Y-93863475D01*
X61921593Y-93848514D01*
X76135000Y-93848514D01*
X76135000Y-94111486D01*
X76186304Y-94369405D01*
X76286939Y-94612359D01*
X76433038Y-94831013D01*
X76618987Y-95016962D01*
X76837641Y-95163061D01*
X77080595Y-95263696D01*
X77338514Y-95315000D01*
X77601486Y-95315000D01*
X77859405Y-95263696D01*
X78102359Y-95163061D01*
X78321013Y-95016962D01*
X78506962Y-94831013D01*
X78653061Y-94612359D01*
X78753696Y-94369405D01*
X78805000Y-94111486D01*
X78805000Y-93848514D01*
X78753696Y-93590595D01*
X78653061Y-93347641D01*
X78506962Y-93128987D01*
X78321013Y-92943038D01*
X78102359Y-92796939D01*
X77859405Y-92696304D01*
X77601486Y-92645000D01*
X77338514Y-92645000D01*
X77080595Y-92696304D01*
X76837641Y-92796939D01*
X76618987Y-92943038D01*
X76433038Y-93128987D01*
X76286939Y-93347641D01*
X76186304Y-93590595D01*
X76135000Y-93848514D01*
X61921593Y-93848514D01*
X62113475Y-93656632D01*
X62275990Y-93413411D01*
X62387932Y-93143158D01*
X62445000Y-92856260D01*
X62445000Y-92563740D01*
X62387932Y-92276842D01*
X62275990Y-92006589D01*
X62113475Y-91763368D01*
X61906632Y-91556525D01*
X61732240Y-91440000D01*
X61906632Y-91323475D01*
X62113475Y-91116632D01*
X62275990Y-90873411D01*
X62387932Y-90603158D01*
X62445000Y-90316260D01*
X62445000Y-90023740D01*
X62387932Y-89736842D01*
X62316753Y-89565001D01*
X67367677Y-89565001D01*
X67404999Y-89568677D01*
X67442321Y-89565001D01*
X67442332Y-89565001D01*
X67553985Y-89554004D01*
X67697246Y-89510547D01*
X67829275Y-89439975D01*
X67945000Y-89345002D01*
X67968803Y-89315998D01*
X68516287Y-88768514D01*
X76135000Y-88768514D01*
X76135000Y-89031486D01*
X76186304Y-89289405D01*
X76286939Y-89532359D01*
X76433038Y-89751013D01*
X76618987Y-89936962D01*
X76837641Y-90083061D01*
X77080595Y-90183696D01*
X77338514Y-90235000D01*
X77601486Y-90235000D01*
X77859405Y-90183696D01*
X78102359Y-90083061D01*
X78321013Y-89936962D01*
X78506962Y-89751013D01*
X78653061Y-89532359D01*
X78753696Y-89289405D01*
X78805000Y-89031486D01*
X78805000Y-88768514D01*
X78753696Y-88510595D01*
X78653061Y-88267641D01*
X78506962Y-88048987D01*
X78321013Y-87863038D01*
X78102359Y-87716939D01*
X77859405Y-87616304D01*
X77601486Y-87565000D01*
X77338514Y-87565000D01*
X77080595Y-87616304D01*
X76837641Y-87716939D01*
X76618987Y-87863038D01*
X76433038Y-88048987D01*
X76286939Y-88267641D01*
X76186304Y-88510595D01*
X76135000Y-88768514D01*
X68516287Y-88768514D01*
X76135000Y-81149801D01*
X76135000Y-81411486D01*
X76186304Y-81669405D01*
X76286939Y-81912359D01*
X76433038Y-82131013D01*
X76618987Y-82316962D01*
X76837641Y-82463061D01*
X77080595Y-82563696D01*
X77338514Y-82615000D01*
X77601486Y-82615000D01*
X77859405Y-82563696D01*
X78102359Y-82463061D01*
X78321013Y-82316962D01*
X78506962Y-82131013D01*
X78653061Y-81912359D01*
X78753696Y-81669405D01*
X78805000Y-81411486D01*
X78805000Y-81148514D01*
X78753696Y-80890595D01*
X78653061Y-80647641D01*
X78506962Y-80428987D01*
X78321013Y-80243038D01*
X78102359Y-80096939D01*
X77859405Y-79996304D01*
X77601486Y-79945000D01*
X77339802Y-79945000D01*
X82335000Y-74949802D01*
X82335000Y-75076260D01*
X82392068Y-75363158D01*
X82504010Y-75633411D01*
X82666525Y-75876632D01*
X82873368Y-76083475D01*
X83047760Y-76200000D01*
X82873368Y-76316525D01*
X82666525Y-76523368D01*
X82504010Y-76766589D01*
X82392068Y-77036842D01*
X82335000Y-77323740D01*
X82335000Y-77616260D01*
X82392068Y-77903158D01*
X82504010Y-78173411D01*
X82666525Y-78416632D01*
X82873368Y-78623475D01*
X83047760Y-78740000D01*
X82873368Y-78856525D01*
X82666525Y-79063368D01*
X82504010Y-79306589D01*
X82392068Y-79576842D01*
X82335000Y-79863740D01*
X82335000Y-80156260D01*
X82392068Y-80443158D01*
X82504010Y-80713411D01*
X82666525Y-80956632D01*
X82873368Y-81163475D01*
X83047760Y-81280000D01*
X82873368Y-81396525D01*
X82666525Y-81603368D01*
X82504010Y-81846589D01*
X82392068Y-82116842D01*
X82335000Y-82403740D01*
X82335000Y-82696260D01*
X82392068Y-82983158D01*
X82504010Y-83253411D01*
X82666525Y-83496632D01*
X82873368Y-83703475D01*
X83047760Y-83820000D01*
X82873368Y-83936525D01*
X82666525Y-84143368D01*
X82504010Y-84386589D01*
X82392068Y-84656842D01*
X82335000Y-84943740D01*
X82335000Y-85236260D01*
X82392068Y-85523158D01*
X82504010Y-85793411D01*
X82666525Y-86036632D01*
X82873368Y-86243475D01*
X83047760Y-86360000D01*
X82873368Y-86476525D01*
X82666525Y-86683368D01*
X82504010Y-86926589D01*
X82392068Y-87196842D01*
X82335000Y-87483740D01*
X82335000Y-87776260D01*
X82392068Y-88063158D01*
X82504010Y-88333411D01*
X82666525Y-88576632D01*
X82873368Y-88783475D01*
X83047760Y-88900000D01*
X82873368Y-89016525D01*
X82666525Y-89223368D01*
X82504010Y-89466589D01*
X82392068Y-89736842D01*
X82335000Y-90023740D01*
X82335000Y-90316260D01*
X82392068Y-90603158D01*
X82504010Y-90873411D01*
X82666525Y-91116632D01*
X82873368Y-91323475D01*
X83047760Y-91440000D01*
X82873368Y-91556525D01*
X82666525Y-91763368D01*
X82504010Y-92006589D01*
X82392068Y-92276842D01*
X82335000Y-92563740D01*
X82335000Y-92856260D01*
X82392068Y-93143158D01*
X82504010Y-93413411D01*
X82666525Y-93656632D01*
X82873368Y-93863475D01*
X83055534Y-93985195D01*
X82938645Y-94054822D01*
X82722412Y-94249731D01*
X82548359Y-94483080D01*
X82423175Y-94745901D01*
X82378524Y-94893110D01*
X82499845Y-95123000D01*
X83693000Y-95123000D01*
X83693000Y-95103000D01*
X83947000Y-95103000D01*
X83947000Y-95123000D01*
X85140155Y-95123000D01*
X85261476Y-94893110D01*
X85216825Y-94745901D01*
X85091641Y-94483080D01*
X84917588Y-94249731D01*
X84701355Y-94054822D01*
X84584466Y-93985195D01*
X84766632Y-93863475D01*
X84973475Y-93656632D01*
X85135990Y-93413411D01*
X85247932Y-93143158D01*
X85305000Y-92856260D01*
X85305000Y-92563740D01*
X85247932Y-92276842D01*
X85135990Y-92006589D01*
X84973475Y-91763368D01*
X84766632Y-91556525D01*
X84592240Y-91440000D01*
X84766632Y-91323475D01*
X84973475Y-91116632D01*
X85135990Y-90873411D01*
X85247932Y-90603158D01*
X85305000Y-90316260D01*
X85305000Y-90023740D01*
X85247932Y-89736842D01*
X85135990Y-89466589D01*
X84973475Y-89223368D01*
X84766632Y-89016525D01*
X84592240Y-88900000D01*
X84766632Y-88783475D01*
X84973475Y-88576632D01*
X85135990Y-88333411D01*
X85247932Y-88063158D01*
X85305000Y-87776260D01*
X85305000Y-87483740D01*
X85247932Y-87196842D01*
X85135990Y-86926589D01*
X84973475Y-86683368D01*
X84766632Y-86476525D01*
X84592240Y-86360000D01*
X84766632Y-86243475D01*
X84973475Y-86036632D01*
X85135990Y-85793411D01*
X85247932Y-85523158D01*
X85305000Y-85236260D01*
X85305000Y-84943740D01*
X85247932Y-84656842D01*
X85135990Y-84386589D01*
X84973475Y-84143368D01*
X84766632Y-83936525D01*
X84592240Y-83820000D01*
X84766632Y-83703475D01*
X84973475Y-83496632D01*
X85135990Y-83253411D01*
X85247932Y-82983158D01*
X85305000Y-82696260D01*
X85305000Y-82403740D01*
X85247932Y-82116842D01*
X85135990Y-81846589D01*
X84973475Y-81603368D01*
X84766632Y-81396525D01*
X84592240Y-81280000D01*
X84766632Y-81163475D01*
X84973475Y-80956632D01*
X85135990Y-80713411D01*
X85247932Y-80443158D01*
X85305000Y-80156260D01*
X85305000Y-79863740D01*
X85247932Y-79576842D01*
X85135990Y-79306589D01*
X84973475Y-79063368D01*
X84766632Y-78856525D01*
X84592240Y-78740000D01*
X84766632Y-78623475D01*
X84973475Y-78416632D01*
X85135990Y-78173411D01*
X85247932Y-77903158D01*
X85305000Y-77616260D01*
X85305000Y-77323740D01*
X85247932Y-77036842D01*
X85135990Y-76766589D01*
X84973475Y-76523368D01*
X84766632Y-76316525D01*
X84592240Y-76200000D01*
X84766632Y-76083475D01*
X84973475Y-75876632D01*
X85135990Y-75633411D01*
X85247932Y-75363158D01*
X85305000Y-75076260D01*
X85305000Y-74783740D01*
X85247932Y-74496842D01*
X85135990Y-74226589D01*
X84973475Y-73983368D01*
X84766632Y-73776525D01*
X84592240Y-73660000D01*
X84766632Y-73543475D01*
X84973475Y-73336632D01*
X85135990Y-73093411D01*
X85247932Y-72823158D01*
X85305000Y-72536260D01*
X85305000Y-72243740D01*
X85247932Y-71956842D01*
X85135990Y-71686589D01*
X84973475Y-71443368D01*
X84766632Y-71236525D01*
X84592240Y-71120000D01*
X84766632Y-71003475D01*
X84973475Y-70796632D01*
X85135990Y-70553411D01*
X85247932Y-70283158D01*
X85305000Y-69996260D01*
X85305000Y-69703740D01*
X85247932Y-69416842D01*
X85135990Y-69146589D01*
X84973475Y-68903368D01*
X84766632Y-68696525D01*
X84584466Y-68574805D01*
X84701355Y-68505178D01*
X84917588Y-68310269D01*
X85091641Y-68076920D01*
X85216825Y-67814099D01*
X85261476Y-67666890D01*
X85140155Y-67437000D01*
X83947000Y-67437000D01*
X83947000Y-67457000D01*
X83693000Y-67457000D01*
X83693000Y-67437000D01*
X82499845Y-67437000D01*
X82378524Y-67666890D01*
X82423175Y-67814099D01*
X82548359Y-68076920D01*
X82722412Y-68310269D01*
X82938645Y-68505178D01*
X83055534Y-68574805D01*
X82873368Y-68696525D01*
X82666525Y-68903368D01*
X82504010Y-69146589D01*
X82392068Y-69416842D01*
X82335000Y-69703740D01*
X82335000Y-69996260D01*
X82392068Y-70283158D01*
X82504010Y-70553411D01*
X82666525Y-70796632D01*
X82873368Y-71003475D01*
X83047760Y-71120000D01*
X82873368Y-71236525D01*
X82666525Y-71443368D01*
X82504010Y-71686589D01*
X82392068Y-71956842D01*
X82335000Y-72243740D01*
X82335000Y-72536260D01*
X82378790Y-72756408D01*
X67090198Y-88045001D01*
X62391544Y-88045001D01*
X62445000Y-87776260D01*
X62445000Y-87483740D01*
X62387932Y-87196842D01*
X62275990Y-86926589D01*
X62113475Y-86683368D01*
X61906632Y-86476525D01*
X61732240Y-86360000D01*
X61906632Y-86243475D01*
X62113475Y-86036632D01*
X62275990Y-85793411D01*
X62387932Y-85523158D01*
X62445000Y-85236260D01*
X62445000Y-84943740D01*
X62387932Y-84656842D01*
X62275990Y-84386589D01*
X62113475Y-84143368D01*
X61906632Y-83936525D01*
X61732240Y-83820000D01*
X61906632Y-83703475D01*
X62113475Y-83496632D01*
X62238178Y-83310000D01*
X64701687Y-83310000D01*
X64847688Y-83528505D01*
X65061495Y-83742312D01*
X65312905Y-83910299D01*
X65592257Y-84026011D01*
X65888816Y-84085000D01*
X66191184Y-84085000D01*
X66487743Y-84026011D01*
X66767095Y-83910299D01*
X67018505Y-83742312D01*
X67084944Y-83675873D01*
X67090498Y-83694180D01*
X67149463Y-83804494D01*
X67228815Y-83901185D01*
X67325506Y-83980537D01*
X67435820Y-84039502D01*
X67555518Y-84075812D01*
X67680000Y-84088072D01*
X68294250Y-84085000D01*
X68453000Y-83926250D01*
X68453000Y-82677000D01*
X68707000Y-82677000D01*
X68707000Y-83926250D01*
X68865750Y-84085000D01*
X69480000Y-84088072D01*
X69604482Y-84075812D01*
X69724180Y-84039502D01*
X69834494Y-83980537D01*
X69931185Y-83901185D01*
X70010537Y-83804494D01*
X70069502Y-83694180D01*
X70105812Y-83574482D01*
X70118072Y-83450000D01*
X70115000Y-82835750D01*
X69956250Y-82677000D01*
X68707000Y-82677000D01*
X68453000Y-82677000D01*
X68433000Y-82677000D01*
X68433000Y-82423000D01*
X68453000Y-82423000D01*
X68453000Y-81173750D01*
X68707000Y-81173750D01*
X68707000Y-82423000D01*
X69956250Y-82423000D01*
X70115000Y-82264250D01*
X70118072Y-81650000D01*
X70105812Y-81525518D01*
X70069502Y-81405820D01*
X70010537Y-81295506D01*
X69931185Y-81198815D01*
X69834494Y-81119463D01*
X69724180Y-81060498D01*
X69604482Y-81024188D01*
X69480000Y-81011928D01*
X68865750Y-81015000D01*
X68707000Y-81173750D01*
X68453000Y-81173750D01*
X68294250Y-81015000D01*
X67680000Y-81011928D01*
X67555518Y-81024188D01*
X67435820Y-81060498D01*
X67325506Y-81119463D01*
X67228815Y-81198815D01*
X67149463Y-81295506D01*
X67090498Y-81405820D01*
X67084944Y-81424127D01*
X67018505Y-81357688D01*
X66767095Y-81189701D01*
X66487743Y-81073989D01*
X66191184Y-81015000D01*
X65888816Y-81015000D01*
X65592257Y-81073989D01*
X65312905Y-81189701D01*
X65061495Y-81357688D01*
X64847688Y-81571495D01*
X64701687Y-81790000D01*
X62238178Y-81790000D01*
X62113475Y-81603368D01*
X61906632Y-81396525D01*
X61732240Y-81280000D01*
X61906632Y-81163475D01*
X62113475Y-80956632D01*
X62275990Y-80713411D01*
X62387932Y-80443158D01*
X62445000Y-80156260D01*
X62445000Y-79863740D01*
X62391544Y-79594999D01*
X64637679Y-79594999D01*
X64675001Y-79598675D01*
X64712323Y-79594999D01*
X64712334Y-79594999D01*
X64823987Y-79584002D01*
X64967248Y-79540545D01*
X65099277Y-79469973D01*
X65215002Y-79375000D01*
X65238805Y-79345996D01*
X65631070Y-78953731D01*
X65888816Y-79005000D01*
X66191184Y-79005000D01*
X66487743Y-78946011D01*
X66767095Y-78830299D01*
X67018505Y-78662312D01*
X67084944Y-78595873D01*
X67090498Y-78614180D01*
X67149463Y-78724494D01*
X67228815Y-78821185D01*
X67325506Y-78900537D01*
X67435820Y-78959502D01*
X67555518Y-78995812D01*
X67680000Y-79008072D01*
X68294250Y-79005000D01*
X68453000Y-78846250D01*
X68453000Y-77597000D01*
X68707000Y-77597000D01*
X68707000Y-78846250D01*
X68865750Y-79005000D01*
X69480000Y-79008072D01*
X69604482Y-78995812D01*
X69724180Y-78959502D01*
X69834494Y-78900537D01*
X69931185Y-78821185D01*
X70010537Y-78724494D01*
X70069502Y-78614180D01*
X70105812Y-78494482D01*
X70118072Y-78370000D01*
X70115000Y-77755750D01*
X69956250Y-77597000D01*
X68707000Y-77597000D01*
X68453000Y-77597000D01*
X68433000Y-77597000D01*
X68433000Y-77343000D01*
X68453000Y-77343000D01*
X68453000Y-76093750D01*
X68707000Y-76093750D01*
X68707000Y-77343000D01*
X69956250Y-77343000D01*
X70115000Y-77184250D01*
X70118072Y-76570000D01*
X70105812Y-76445518D01*
X70069502Y-76325820D01*
X70010537Y-76215506D01*
X69931185Y-76118815D01*
X69834494Y-76039463D01*
X69724180Y-75980498D01*
X69604482Y-75944188D01*
X69480000Y-75931928D01*
X68865750Y-75935000D01*
X68707000Y-76093750D01*
X68453000Y-76093750D01*
X68294250Y-75935000D01*
X67680000Y-75931928D01*
X67555518Y-75944188D01*
X67435820Y-75980498D01*
X67325506Y-76039463D01*
X67228815Y-76118815D01*
X67149463Y-76215506D01*
X67090498Y-76325820D01*
X67084944Y-76344127D01*
X67018505Y-76277688D01*
X66767095Y-76109701D01*
X66487743Y-75993989D01*
X66191184Y-75935000D01*
X65888816Y-75935000D01*
X65592257Y-75993989D01*
X65312905Y-76109701D01*
X65061495Y-76277688D01*
X64847688Y-76491495D01*
X64679701Y-76742905D01*
X64563989Y-77022257D01*
X64505000Y-77318816D01*
X64505000Y-77621184D01*
X64556269Y-77878930D01*
X64360200Y-78074999D01*
X62316753Y-78074999D01*
X62387932Y-77903158D01*
X62445000Y-77616260D01*
X62445000Y-77323740D01*
X62387932Y-77036842D01*
X62275990Y-76766589D01*
X62113475Y-76523368D01*
X61906632Y-76316525D01*
X61732240Y-76200000D01*
X61906632Y-76083475D01*
X62113475Y-75876632D01*
X62275990Y-75633411D01*
X62387932Y-75363158D01*
X62445000Y-75076260D01*
X62445000Y-74783740D01*
X62387932Y-74496842D01*
X62275990Y-74226589D01*
X62113475Y-73983368D01*
X61906632Y-73776525D01*
X61732240Y-73660000D01*
X61906632Y-73543475D01*
X62113475Y-73336632D01*
X62275990Y-73093411D01*
X62387932Y-72823158D01*
X62445000Y-72536260D01*
X62445000Y-72243740D01*
X62387932Y-71956842D01*
X62275990Y-71686589D01*
X62113475Y-71443368D01*
X61906632Y-71236525D01*
X61732240Y-71120000D01*
X61906632Y-71003475D01*
X62113475Y-70796632D01*
X62275990Y-70553411D01*
X62387932Y-70283158D01*
X62445000Y-69996260D01*
X62445000Y-69703740D01*
X62387932Y-69416842D01*
X62275990Y-69146589D01*
X62113475Y-68903368D01*
X61906632Y-68696525D01*
X61732240Y-68580000D01*
X61906632Y-68463475D01*
X62113475Y-68256632D01*
X62275990Y-68013411D01*
X62387932Y-67743158D01*
X62445000Y-67456260D01*
X62445000Y-67172408D01*
X65913000Y-67172408D01*
X65913000Y-67447592D01*
X65966686Y-67717490D01*
X66071995Y-67971727D01*
X66224880Y-68200535D01*
X66419465Y-68395120D01*
X66648273Y-68548005D01*
X66725515Y-68580000D01*
X66648273Y-68611995D01*
X66419465Y-68764880D01*
X66224880Y-68959465D01*
X66071995Y-69188273D01*
X65966686Y-69442510D01*
X65913000Y-69712408D01*
X65913000Y-69987592D01*
X65966686Y-70257490D01*
X66071995Y-70511727D01*
X66224880Y-70740535D01*
X66419465Y-70935120D01*
X66648273Y-71088005D01*
X66902510Y-71193314D01*
X67172408Y-71247000D01*
X67447592Y-71247000D01*
X67717490Y-71193314D01*
X67971727Y-71088005D01*
X68200535Y-70935120D01*
X68395120Y-70740535D01*
X68548005Y-70511727D01*
X68653314Y-70257490D01*
X68707000Y-69987592D01*
X68707000Y-69712408D01*
X68653314Y-69442510D01*
X68548005Y-69188273D01*
X68395120Y-68959465D01*
X68200535Y-68764880D01*
X67971727Y-68611995D01*
X67894485Y-68580000D01*
X67971727Y-68548005D01*
X68200535Y-68395120D01*
X68395120Y-68200535D01*
X68548005Y-67971727D01*
X68653314Y-67717490D01*
X68707000Y-67447592D01*
X68707000Y-67172408D01*
X76073000Y-67172408D01*
X76073000Y-67447592D01*
X76126686Y-67717490D01*
X76231995Y-67971727D01*
X76384880Y-68200535D01*
X76579465Y-68395120D01*
X76808273Y-68548005D01*
X76885515Y-68580000D01*
X76808273Y-68611995D01*
X76579465Y-68764880D01*
X76384880Y-68959465D01*
X76231995Y-69188273D01*
X76126686Y-69442510D01*
X76073000Y-69712408D01*
X76073000Y-69987592D01*
X76126686Y-70257490D01*
X76231995Y-70511727D01*
X76384880Y-70740535D01*
X76579465Y-70935120D01*
X76808273Y-71088005D01*
X77062510Y-71193314D01*
X77332408Y-71247000D01*
X77607592Y-71247000D01*
X77877490Y-71193314D01*
X78131727Y-71088005D01*
X78360535Y-70935120D01*
X78555120Y-70740535D01*
X78708005Y-70511727D01*
X78813314Y-70257490D01*
X78867000Y-69987592D01*
X78867000Y-69712408D01*
X78813314Y-69442510D01*
X78708005Y-69188273D01*
X78555120Y-68959465D01*
X78360535Y-68764880D01*
X78131727Y-68611995D01*
X78054485Y-68580000D01*
X78131727Y-68548005D01*
X78360535Y-68395120D01*
X78555120Y-68200535D01*
X78708005Y-67971727D01*
X78813314Y-67717490D01*
X78867000Y-67447592D01*
X78867000Y-67172408D01*
X78823379Y-66953110D01*
X82378524Y-66953110D01*
X82499845Y-67183000D01*
X83693000Y-67183000D01*
X83693000Y-65989186D01*
X83947000Y-65989186D01*
X83947000Y-67183000D01*
X85140155Y-67183000D01*
X85261476Y-66953110D01*
X85216825Y-66805901D01*
X85091641Y-66543080D01*
X84917588Y-66309731D01*
X84701355Y-66114822D01*
X84451252Y-65965843D01*
X84176891Y-65868519D01*
X83947000Y-65989186D01*
X83693000Y-65989186D01*
X83463109Y-65868519D01*
X83188748Y-65965843D01*
X82938645Y-66114822D01*
X82722412Y-66309731D01*
X82548359Y-66543080D01*
X82423175Y-66805901D01*
X82378524Y-66953110D01*
X78823379Y-66953110D01*
X78813314Y-66902510D01*
X78708005Y-66648273D01*
X78555120Y-66419465D01*
X78360535Y-66224880D01*
X78131727Y-66071995D01*
X78060057Y-66042308D01*
X78073023Y-66037636D01*
X78188980Y-65975656D01*
X78255960Y-65735565D01*
X77470000Y-64949605D01*
X76684040Y-65735565D01*
X76751020Y-65975656D01*
X76886760Y-66039485D01*
X76808273Y-66071995D01*
X76579465Y-66224880D01*
X76384880Y-66419465D01*
X76231995Y-66648273D01*
X76126686Y-66902510D01*
X76073000Y-67172408D01*
X68707000Y-67172408D01*
X68653314Y-66902510D01*
X68548005Y-66648273D01*
X68395120Y-66419465D01*
X68200535Y-66224880D01*
X67971727Y-66071995D01*
X67900057Y-66042308D01*
X67913023Y-66037636D01*
X68028980Y-65975656D01*
X68095960Y-65735565D01*
X67310000Y-64949605D01*
X66524040Y-65735565D01*
X66591020Y-65975656D01*
X66726760Y-66039485D01*
X66648273Y-66071995D01*
X66419465Y-66224880D01*
X66224880Y-66419465D01*
X66071995Y-66648273D01*
X65966686Y-66902510D01*
X65913000Y-67172408D01*
X62445000Y-67172408D01*
X62445000Y-67163740D01*
X62387932Y-66876842D01*
X62275990Y-66606589D01*
X62113475Y-66363368D01*
X61906632Y-66156525D01*
X61732240Y-66040000D01*
X61906632Y-65923475D01*
X62113475Y-65716632D01*
X62275990Y-65473411D01*
X62387932Y-65203158D01*
X62445000Y-64916260D01*
X62445000Y-64842017D01*
X65908090Y-64842017D01*
X65949078Y-65114133D01*
X66042364Y-65373023D01*
X66104344Y-65488980D01*
X66344435Y-65555960D01*
X67130395Y-64770000D01*
X67489605Y-64770000D01*
X68275565Y-65555960D01*
X68515656Y-65488980D01*
X68632756Y-65239952D01*
X68699023Y-64972865D01*
X68705157Y-64842017D01*
X76068090Y-64842017D01*
X76109078Y-65114133D01*
X76202364Y-65373023D01*
X76264344Y-65488980D01*
X76504435Y-65555960D01*
X77290395Y-64770000D01*
X77649605Y-64770000D01*
X78435565Y-65555960D01*
X78675656Y-65488980D01*
X78792756Y-65239952D01*
X78859023Y-64972865D01*
X78871910Y-64697983D01*
X78830922Y-64425867D01*
X78737636Y-64166977D01*
X78675656Y-64051020D01*
X78435565Y-63984040D01*
X77649605Y-64770000D01*
X77290395Y-64770000D01*
X76504435Y-63984040D01*
X76264344Y-64051020D01*
X76147244Y-64300048D01*
X76080977Y-64567135D01*
X76068090Y-64842017D01*
X68705157Y-64842017D01*
X68711910Y-64697983D01*
X68670922Y-64425867D01*
X68577636Y-64166977D01*
X68515656Y-64051020D01*
X68275565Y-63984040D01*
X67489605Y-64770000D01*
X67130395Y-64770000D01*
X66344435Y-63984040D01*
X66104344Y-64051020D01*
X65987244Y-64300048D01*
X65920977Y-64567135D01*
X65908090Y-64842017D01*
X62445000Y-64842017D01*
X62445000Y-64623740D01*
X62387932Y-64336842D01*
X62275990Y-64066589D01*
X62113475Y-63823368D01*
X61906632Y-63616525D01*
X61724466Y-63494805D01*
X61841355Y-63425178D01*
X62057588Y-63230269D01*
X62231641Y-62996920D01*
X62356825Y-62734099D01*
X62401476Y-62586890D01*
X62280155Y-62357000D01*
X61087000Y-62357000D01*
X61087000Y-62377000D01*
X60833000Y-62377000D01*
X60833000Y-62357000D01*
X60813000Y-62357000D01*
X60813000Y-62103000D01*
X60833000Y-62103000D01*
X60833000Y-62083000D01*
X61087000Y-62083000D01*
X61087000Y-62103000D01*
X62280155Y-62103000D01*
X62401476Y-61873110D01*
X62356825Y-61725901D01*
X62231641Y-61463080D01*
X62057588Y-61229731D01*
X61841355Y-61034822D01*
X61724466Y-60965195D01*
X61906632Y-60843475D01*
X62113475Y-60636632D01*
X62275990Y-60393411D01*
X62387932Y-60123158D01*
X62445000Y-59836260D01*
X62445000Y-59543740D01*
X62387932Y-59256842D01*
X62275990Y-58986589D01*
X62113475Y-58743368D01*
X61906632Y-58536525D01*
X61732240Y-58420000D01*
X61906632Y-58303475D01*
X62113475Y-58096632D01*
X62275990Y-57853411D01*
X62387932Y-57583158D01*
X62445000Y-57296260D01*
X62445000Y-57003740D01*
X62387932Y-56716842D01*
X62275990Y-56446589D01*
X62236843Y-56388000D01*
X65909928Y-56388000D01*
X65909928Y-57912000D01*
X65922188Y-58036482D01*
X65958498Y-58156180D01*
X66017463Y-58266494D01*
X66096815Y-58363185D01*
X66193506Y-58442537D01*
X66303820Y-58501502D01*
X66423518Y-58537812D01*
X66507465Y-58546080D01*
X66419465Y-58604880D01*
X66224880Y-58799465D01*
X66071995Y-59028273D01*
X65966686Y-59282510D01*
X65913000Y-59552408D01*
X65913000Y-59827592D01*
X65966686Y-60097490D01*
X66071995Y-60351727D01*
X66224880Y-60580535D01*
X66419465Y-60775120D01*
X66648273Y-60928005D01*
X66725515Y-60960000D01*
X66648273Y-60991995D01*
X66419465Y-61144880D01*
X66224880Y-61339465D01*
X66071995Y-61568273D01*
X65966686Y-61822510D01*
X65913000Y-62092408D01*
X65913000Y-62367592D01*
X65966686Y-62637490D01*
X66071995Y-62891727D01*
X66224880Y-63120535D01*
X66419465Y-63315120D01*
X66648273Y-63468005D01*
X66719943Y-63497692D01*
X66706977Y-63502364D01*
X66591020Y-63564344D01*
X66524040Y-63804435D01*
X67310000Y-64590395D01*
X68095960Y-63804435D01*
X68028980Y-63564344D01*
X67893240Y-63500515D01*
X67971727Y-63468005D01*
X68200535Y-63315120D01*
X68395120Y-63120535D01*
X68548005Y-62891727D01*
X68653314Y-62637490D01*
X68707000Y-62367592D01*
X68707000Y-62092408D01*
X68653314Y-61822510D01*
X68548005Y-61568273D01*
X68395120Y-61339465D01*
X68200535Y-61144880D01*
X67971727Y-60991995D01*
X67894485Y-60960000D01*
X67971727Y-60928005D01*
X68200535Y-60775120D01*
X68395120Y-60580535D01*
X68548005Y-60351727D01*
X68653314Y-60097490D01*
X68707000Y-59827592D01*
X68707000Y-59552408D01*
X68653314Y-59282510D01*
X68548005Y-59028273D01*
X68395120Y-58799465D01*
X68200535Y-58604880D01*
X68112535Y-58546080D01*
X68196482Y-58537812D01*
X68316180Y-58501502D01*
X68426494Y-58442537D01*
X68523185Y-58363185D01*
X68602537Y-58266494D01*
X68661502Y-58156180D01*
X68697812Y-58036482D01*
X68710072Y-57912000D01*
X68710072Y-56388000D01*
X76069928Y-56388000D01*
X76069928Y-57912000D01*
X76082188Y-58036482D01*
X76118498Y-58156180D01*
X76177463Y-58266494D01*
X76256815Y-58363185D01*
X76353506Y-58442537D01*
X76463820Y-58501502D01*
X76583518Y-58537812D01*
X76667465Y-58546080D01*
X76579465Y-58604880D01*
X76384880Y-58799465D01*
X76231995Y-59028273D01*
X76126686Y-59282510D01*
X76073000Y-59552408D01*
X76073000Y-59827592D01*
X76126686Y-60097490D01*
X76231995Y-60351727D01*
X76384880Y-60580535D01*
X76579465Y-60775120D01*
X76808273Y-60928005D01*
X76885515Y-60960000D01*
X76808273Y-60991995D01*
X76579465Y-61144880D01*
X76384880Y-61339465D01*
X76231995Y-61568273D01*
X76126686Y-61822510D01*
X76073000Y-62092408D01*
X76073000Y-62367592D01*
X76126686Y-62637490D01*
X76231995Y-62891727D01*
X76384880Y-63120535D01*
X76579465Y-63315120D01*
X76808273Y-63468005D01*
X76879943Y-63497692D01*
X76866977Y-63502364D01*
X76751020Y-63564344D01*
X76684040Y-63804435D01*
X77470000Y-64590395D01*
X78255960Y-63804435D01*
X78188980Y-63564344D01*
X78053240Y-63500515D01*
X78131727Y-63468005D01*
X78360535Y-63315120D01*
X78555120Y-63120535D01*
X78708005Y-62891727D01*
X78813314Y-62637490D01*
X78867000Y-62367592D01*
X78867000Y-62092408D01*
X78813314Y-61822510D01*
X78708005Y-61568273D01*
X78555120Y-61339465D01*
X78360535Y-61144880D01*
X78131727Y-60991995D01*
X78054485Y-60960000D01*
X78131727Y-60928005D01*
X78360535Y-60775120D01*
X78555120Y-60580535D01*
X78708005Y-60351727D01*
X78813314Y-60097490D01*
X78867000Y-59827592D01*
X78867000Y-59552408D01*
X78813314Y-59282510D01*
X78708005Y-59028273D01*
X78555120Y-58799465D01*
X78360535Y-58604880D01*
X78272535Y-58546080D01*
X78356482Y-58537812D01*
X78476180Y-58501502D01*
X78586494Y-58442537D01*
X78683185Y-58363185D01*
X78762537Y-58266494D01*
X78821502Y-58156180D01*
X78857812Y-58036482D01*
X78870072Y-57912000D01*
X78870072Y-56388000D01*
X78857812Y-56263518D01*
X78821502Y-56143820D01*
X78762537Y-56033506D01*
X78683185Y-55936815D01*
X78586494Y-55857463D01*
X78476180Y-55798498D01*
X78356482Y-55762188D01*
X78232000Y-55749928D01*
X76708000Y-55749928D01*
X76583518Y-55762188D01*
X76463820Y-55798498D01*
X76353506Y-55857463D01*
X76256815Y-55936815D01*
X76177463Y-56033506D01*
X76118498Y-56143820D01*
X76082188Y-56263518D01*
X76069928Y-56388000D01*
X68710072Y-56388000D01*
X68697812Y-56263518D01*
X68661502Y-56143820D01*
X68602537Y-56033506D01*
X68523185Y-55936815D01*
X68426494Y-55857463D01*
X68316180Y-55798498D01*
X68196482Y-55762188D01*
X68072000Y-55749928D01*
X66548000Y-55749928D01*
X66423518Y-55762188D01*
X66303820Y-55798498D01*
X66193506Y-55857463D01*
X66096815Y-55936815D01*
X66017463Y-56033506D01*
X65958498Y-56143820D01*
X65922188Y-56263518D01*
X65909928Y-56388000D01*
X62236843Y-56388000D01*
X62113475Y-56203368D01*
X61906632Y-55996525D01*
X61663411Y-55834010D01*
X61393158Y-55722068D01*
X61106260Y-55665000D01*
X60813740Y-55665000D01*
X60526842Y-55722068D01*
X60355001Y-55793247D01*
X60355001Y-43042323D01*
X60358677Y-43005000D01*
X60355001Y-42967677D01*
X60355001Y-42967668D01*
X60344004Y-42856015D01*
X60300547Y-42712754D01*
X60229975Y-42580725D01*
X60216812Y-42564686D01*
X60158800Y-42493997D01*
X60158796Y-42493993D01*
X60135002Y-42465000D01*
X60106010Y-42441207D01*
X58855000Y-41190198D01*
X58855000Y-39570176D01*
X58831487Y-39331444D01*
X58759759Y-39094990D01*
X59610189Y-39094990D01*
X60601928Y-40086730D01*
X60601928Y-42620000D01*
X60614188Y-42744482D01*
X60650498Y-42864180D01*
X60709463Y-42974494D01*
X60788815Y-43071185D01*
X60885506Y-43150537D01*
X60995820Y-43209502D01*
X61115518Y-43245812D01*
X61240000Y-43258072D01*
X63220000Y-43258072D01*
X63344482Y-43245812D01*
X63464180Y-43209502D01*
X63574494Y-43150537D01*
X63671185Y-43071185D01*
X63750537Y-42974494D01*
X63809502Y-42864180D01*
X63845812Y-42744482D01*
X63858072Y-42620000D01*
X63858072Y-41709823D01*
X67035000Y-41709823D01*
X67058513Y-41948555D01*
X67151432Y-42254868D01*
X67302325Y-42537169D01*
X67505392Y-42784608D01*
X67752830Y-42987675D01*
X68035131Y-43138568D01*
X68341444Y-43231487D01*
X68660000Y-43262862D01*
X68978555Y-43231487D01*
X69284868Y-43138568D01*
X69567169Y-42987675D01*
X69814608Y-42784608D01*
X70017675Y-42537170D01*
X70168568Y-42254869D01*
X70261487Y-41948556D01*
X70285000Y-41709824D01*
X70285000Y-39570176D01*
X70261487Y-39331444D01*
X70168568Y-39025131D01*
X70017675Y-38742830D01*
X69949699Y-38660000D01*
X72031928Y-38660000D01*
X72031928Y-42620000D01*
X72044188Y-42744482D01*
X72080498Y-42864180D01*
X72139463Y-42974494D01*
X72218815Y-43071185D01*
X72315506Y-43150537D01*
X72425820Y-43209502D01*
X72545518Y-43245812D01*
X72670000Y-43258072D01*
X74650000Y-43258072D01*
X74774482Y-43245812D01*
X74894180Y-43209502D01*
X75004494Y-43150537D01*
X75101185Y-43071185D01*
X75180537Y-42974494D01*
X75239502Y-42864180D01*
X75275812Y-42744482D01*
X75288072Y-42620000D01*
X75288072Y-41709823D01*
X78465000Y-41709823D01*
X78488513Y-41948555D01*
X78581432Y-42254868D01*
X78732325Y-42537169D01*
X78935392Y-42784608D01*
X79182830Y-42987675D01*
X79465131Y-43138568D01*
X79771444Y-43231487D01*
X80090000Y-43262862D01*
X80408555Y-43231487D01*
X80714868Y-43138568D01*
X80997169Y-42987675D01*
X81244608Y-42784608D01*
X81447675Y-42537170D01*
X81598568Y-42254869D01*
X81691487Y-41948556D01*
X81715000Y-41709824D01*
X81715000Y-39570176D01*
X81691487Y-39331444D01*
X81598568Y-39025131D01*
X81447675Y-38742830D01*
X81379699Y-38660000D01*
X83461928Y-38660000D01*
X83461928Y-42620000D01*
X83474188Y-42744482D01*
X83510498Y-42864180D01*
X83569463Y-42974494D01*
X83648815Y-43071185D01*
X83745506Y-43150537D01*
X83855820Y-43209502D01*
X83975518Y-43245812D01*
X84100000Y-43258072D01*
X86080000Y-43258072D01*
X86204482Y-43245812D01*
X86324180Y-43209502D01*
X86434494Y-43150537D01*
X86531185Y-43071185D01*
X86610537Y-42974494D01*
X86669502Y-42864180D01*
X86705812Y-42744482D01*
X86718072Y-42620000D01*
X86718072Y-38660000D01*
X86705812Y-38535518D01*
X86669502Y-38415820D01*
X86610537Y-38305506D01*
X86531185Y-38208815D01*
X86434494Y-38129463D01*
X86324180Y-38070498D01*
X86204482Y-38034188D01*
X86080000Y-38021928D01*
X84100000Y-38021928D01*
X83975518Y-38034188D01*
X83855820Y-38070498D01*
X83745506Y-38129463D01*
X83648815Y-38208815D01*
X83569463Y-38305506D01*
X83510498Y-38415820D01*
X83474188Y-38535518D01*
X83461928Y-38660000D01*
X81379699Y-38660000D01*
X81244608Y-38495392D01*
X80997170Y-38292325D01*
X80714869Y-38141432D01*
X80408556Y-38048513D01*
X80090000Y-38017138D01*
X79771445Y-38048513D01*
X79465132Y-38141432D01*
X79182831Y-38292325D01*
X78935393Y-38495392D01*
X78732326Y-38742830D01*
X78581433Y-39025131D01*
X78488514Y-39331444D01*
X78465001Y-39570176D01*
X78465000Y-41709823D01*
X75288072Y-41709823D01*
X75288072Y-38660000D01*
X75275812Y-38535518D01*
X75239502Y-38415820D01*
X75180537Y-38305506D01*
X75101185Y-38208815D01*
X75004494Y-38129463D01*
X74894180Y-38070498D01*
X74774482Y-38034188D01*
X74650000Y-38021928D01*
X72670000Y-38021928D01*
X72545518Y-38034188D01*
X72425820Y-38070498D01*
X72315506Y-38129463D01*
X72218815Y-38208815D01*
X72139463Y-38305506D01*
X72080498Y-38415820D01*
X72044188Y-38535518D01*
X72031928Y-38660000D01*
X69949699Y-38660000D01*
X69814608Y-38495392D01*
X69567170Y-38292325D01*
X69284869Y-38141432D01*
X68978556Y-38048513D01*
X68660000Y-38017138D01*
X68341445Y-38048513D01*
X68035132Y-38141432D01*
X67752831Y-38292325D01*
X67505393Y-38495392D01*
X67302326Y-38742830D01*
X67151433Y-39025131D01*
X67058514Y-39331444D01*
X67035001Y-39570176D01*
X67035000Y-41709823D01*
X63858072Y-41709823D01*
X63858072Y-38660000D01*
X63845812Y-38535518D01*
X63809502Y-38415820D01*
X63750537Y-38305506D01*
X63671185Y-38208815D01*
X63574494Y-38129463D01*
X63464180Y-38070498D01*
X63344482Y-38034188D01*
X63220000Y-38021928D01*
X61240000Y-38021928D01*
X61115518Y-38034188D01*
X60995820Y-38070498D01*
X60885506Y-38129463D01*
X60835392Y-38170590D01*
X60488794Y-37823992D01*
X60464991Y-37794989D01*
X60349266Y-37700016D01*
X60217237Y-37629444D01*
X60073976Y-37585987D01*
X59962323Y-37574990D01*
X59962312Y-37574990D01*
X59924990Y-37571314D01*
X59887668Y-37574990D01*
X56722628Y-37574990D01*
X56685305Y-37571314D01*
X56647982Y-37574990D01*
X56647973Y-37574990D01*
X56536320Y-37585987D01*
X56393059Y-37629444D01*
X56261030Y-37700016D01*
X56145305Y-37794989D01*
X56121507Y-37823988D01*
X55403992Y-38541503D01*
X55374989Y-38565305D01*
X55324164Y-38627236D01*
X55280016Y-38681030D01*
X55246983Y-38742830D01*
X55209444Y-38813060D01*
X55165987Y-38956321D01*
X55154990Y-39067974D01*
X55154990Y-39067984D01*
X55151314Y-39105306D01*
X53467000Y-39105306D01*
X53467000Y-35687000D01*
X88773000Y-35687000D01*
X88773000Y-107823000D01*
G37*
%TD.AperFunction*%
%TD*%
M02*
