M48
; DRILL file {KiCad (5.1.8)-1} date 12/08/20 02:20:52
; FORMAT={-:-/ absolute / inch / decimal}
; #@! TF.CreationDate,2020-12-08T02:20:52-08:00
; #@! TF.GenerationSoftware,Kicad,Pcbnew,(5.1.8)-1
; #@! TF.FileFunction,Plated,1,2,PTH
FMAT,2
INCH
T1C0.0276
T2C0.0354
T3C0.0394
T4C0.0400
T5C0.0520
%
G90
G05
T1
X3.05Y-3.2
X3.05Y-3.5
X3.05Y-3.7
X3.05Y-4.0
T2
X2.6Y-3.25
X2.7Y-3.25
X2.6Y-3.05
X2.7Y-3.05
T3
X2.3Y-2.25
X2.3Y-2.35
X2.3Y-2.45
X2.3Y-2.55
X2.3Y-2.65
X2.3Y-2.75
X2.3Y-2.85
X2.3Y-2.95
X2.3Y-3.05
X2.3Y-3.15
X2.3Y-3.25
X2.3Y-3.35
X2.3Y-3.45
X2.3Y-3.55
X2.3Y-3.65
X2.3Y-3.75
X2.3Y-3.85
X2.3Y-3.95
X2.3Y-4.05
X2.3Y-4.15
X2.4Y-2.25
X2.4Y-2.35
X2.4Y-2.45
X2.4Y-2.55
X2.4Y-2.65
X2.4Y-2.75
X2.4Y-2.85
X2.4Y-2.95
X2.4Y-3.05
X2.4Y-3.15
X2.4Y-3.25
X2.4Y-3.35
X2.4Y-3.45
X2.4Y-3.55
X2.4Y-3.65
X2.4Y-3.75
X2.4Y-3.85
X2.4Y-3.95
X2.4Y-4.05
X2.4Y-4.15
X3.3Y-2.65
X3.3Y-2.75
X3.3Y-2.85
X3.3Y-2.95
X3.3Y-3.05
X3.3Y-3.15
X3.3Y-3.25
X3.3Y-3.35
X3.3Y-3.45
X3.3Y-3.55
X3.3Y-3.65
X3.3Y-3.75
X3.3Y-3.85
X3.3Y-3.95
X3.3Y-4.05
X3.3Y-4.15
T4
X2.65Y-2.25
X2.65Y-2.35
X2.65Y-2.45
X2.65Y-2.55
X2.65Y-2.65
X2.65Y-2.75
X3.05Y-2.25
X3.05Y-2.35
X3.05Y-2.45
X3.05Y-2.55
X3.05Y-2.65
X3.05Y-2.75
T5
X2.7031Y-1.6
X2.9Y-1.6
X3.1531Y-1.6
X3.35Y-1.6
X2.2531Y-1.6
X2.45Y-1.6
T0
M30
