%TF.GenerationSoftware,KiCad,Pcbnew,(5.1.8)-1*%
%TF.CreationDate,2020-12-08T02:20:49-08:00*%
%TF.ProjectId,pihidscan,70696869-6473-4636-916e-2e6b69636164,rev?*%
%TF.SameCoordinates,Original*%
%TF.FileFunction,Copper,L1,Top*%
%TF.FilePolarity,Positive*%
%FSLAX46Y46*%
G04 Gerber Fmt 4.6, Leading zero omitted, Abs format (unit mm)*
G04 Created by KiCad (PCBNEW (5.1.8)-1) date 2020-12-08 02:20:49*
%MOMM*%
%LPD*%
G01*
G04 APERTURE LIST*
%TA.AperFunction,ComponentPad*%
%ADD10O,1.700000X1.700000*%
%TD*%
%TA.AperFunction,ComponentPad*%
%ADD11R,1.700000X1.700000*%
%TD*%
%TA.AperFunction,ComponentPad*%
%ADD12C,1.800000*%
%TD*%
%TA.AperFunction,ComponentPad*%
%ADD13R,1.800000X1.800000*%
%TD*%
%TA.AperFunction,ComponentPad*%
%ADD14O,1.980000X3.960000*%
%TD*%
%TA.AperFunction,ComponentPad*%
%ADD15R,1.980000X3.960000*%
%TD*%
%TA.AperFunction,ComponentPad*%
%ADD16C,1.524000*%
%TD*%
%TA.AperFunction,ComponentPad*%
%ADD17R,1.524000X1.524000*%
%TD*%
%TA.AperFunction,ComponentPad*%
%ADD18O,1.400000X1.400000*%
%TD*%
%TA.AperFunction,ComponentPad*%
%ADD19C,1.400000*%
%TD*%
%TA.AperFunction,Conductor*%
%ADD20C,0.250000*%
%TD*%
G04 APERTURE END LIST*
D10*
%TO.P,LCD Disp,16*%
%TO.N,GND*%
X83820000Y-67310000D03*
%TO.P,LCD Disp,15*%
%TO.N,Net-(J5-Pad15)*%
X83820000Y-69850000D03*
%TO.P,LCD Disp,14*%
%TO.N,Net-(J2-Pad29)*%
X83820000Y-72390000D03*
%TO.P,LCD Disp,13*%
%TO.N,Net-(J2-Pad32)*%
X83820000Y-74930000D03*
%TO.P,LCD Disp,12*%
%TO.N,Net-(J2-Pad31)*%
X83820000Y-77470000D03*
%TO.P,LCD Disp,11*%
%TO.N,Net-(J2-Pad33)*%
X83820000Y-80010000D03*
%TO.P,LCD Disp,10*%
%TO.N,Net-(J5-Pad10)*%
X83820000Y-82550000D03*
%TO.P,LCD Disp,9*%
%TO.N,Net-(J5-Pad9)*%
X83820000Y-85090000D03*
%TO.P,LCD Disp,8*%
%TO.N,Net-(J5-Pad8)*%
X83820000Y-87630000D03*
%TO.P,LCD Disp,7*%
%TO.N,Net-(J5-Pad7)*%
X83820000Y-90170000D03*
%TO.P,LCD Disp,6*%
%TO.N,Net-(J2-Pad36)*%
X83820000Y-92710000D03*
%TO.P,LCD Disp,5*%
%TO.N,GND*%
X83820000Y-95250000D03*
%TO.P,LCD Disp,4*%
%TO.N,Net-(J2-Pad37)*%
X83820000Y-97790000D03*
%TO.P,LCD Disp,3*%
%TO.N,Net-(J5-Pad3)*%
X83820000Y-100330000D03*
%TO.P,LCD Disp,2*%
%TO.N,+5V*%
X83820000Y-102870000D03*
D11*
%TO.P,LCD Disp,1*%
%TO.N,GND*%
X83820000Y-105410000D03*
%TD*%
D10*
%TO.P,Pi Conn,40*%
%TO.N,Net-(J2-Pad40)*%
X60960000Y-105410000D03*
%TO.P,Pi Conn,39*%
%TO.N,Net-(J2-Pad39)*%
X58420000Y-105410000D03*
%TO.P,Pi Conn,38*%
%TO.N,Net-(J2-Pad38)*%
X60960000Y-102870000D03*
%TO.P,Pi Conn,37*%
%TO.N,Net-(J2-Pad37)*%
X58420000Y-102870000D03*
%TO.P,Pi Conn,36*%
%TO.N,Net-(J2-Pad36)*%
X60960000Y-100330000D03*
%TO.P,Pi Conn,35*%
%TO.N,Net-(J2-Pad35)*%
X58420000Y-100330000D03*
%TO.P,Pi Conn,34*%
%TO.N,Net-(J2-Pad34)*%
X60960000Y-97790000D03*
%TO.P,Pi Conn,33*%
%TO.N,Net-(J2-Pad33)*%
X58420000Y-97790000D03*
%TO.P,Pi Conn,32*%
%TO.N,Net-(J2-Pad32)*%
X60960000Y-95250000D03*
%TO.P,Pi Conn,31*%
%TO.N,Net-(J2-Pad31)*%
X58420000Y-95250000D03*
%TO.P,Pi Conn,30*%
%TO.N,Net-(J2-Pad30)*%
X60960000Y-92710000D03*
%TO.P,Pi Conn,29*%
%TO.N,Net-(J2-Pad29)*%
X58420000Y-92710000D03*
%TO.P,Pi Conn,28*%
%TO.N,Net-(J2-Pad28)*%
X60960000Y-90170000D03*
%TO.P,Pi Conn,27*%
%TO.N,Net-(J2-Pad27)*%
X58420000Y-90170000D03*
%TO.P,Pi Conn,26*%
%TO.N,Net-(J2-Pad26)*%
X60960000Y-87630000D03*
%TO.P,Pi Conn,25*%
%TO.N,Net-(J2-Pad25)*%
X58420000Y-87630000D03*
%TO.P,Pi Conn,24*%
%TO.N,Net-(J2-Pad24)*%
X60960000Y-85090000D03*
%TO.P,Pi Conn,23*%
%TO.N,Net-(J2-Pad23)*%
X58420000Y-85090000D03*
%TO.P,Pi Conn,22*%
%TO.N,Net-(D1-Pad2)*%
X60960000Y-82550000D03*
%TO.P,Pi Conn,21*%
%TO.N,Net-(J2-Pad21)*%
X58420000Y-82550000D03*
%TO.P,Pi Conn,20*%
%TO.N,Net-(J2-Pad20)*%
X60960000Y-80010000D03*
%TO.P,Pi Conn,19*%
%TO.N,Net-(J2-Pad19)*%
X58420000Y-80010000D03*
%TO.P,Pi Conn,18*%
%TO.N,Net-(J2-Pad18)*%
X60960000Y-77470000D03*
%TO.P,Pi Conn,17*%
%TO.N,Net-(D2-Pad2)*%
X58420000Y-77470000D03*
%TO.P,Pi Conn,16*%
%TO.N,Net-(J2-Pad16)*%
X60960000Y-74930000D03*
%TO.P,Pi Conn,15*%
%TO.N,Net-(J2-Pad15)*%
X58420000Y-74930000D03*
%TO.P,Pi Conn,14*%
%TO.N,Net-(J2-Pad14)*%
X60960000Y-72390000D03*
%TO.P,Pi Conn,13*%
%TO.N,Net-(J2-Pad13)*%
X58420000Y-72390000D03*
%TO.P,Pi Conn,12*%
%TO.N,Net-(J2-Pad12)*%
X60960000Y-69850000D03*
%TO.P,Pi Conn,11*%
%TO.N,Net-(J2-Pad11)*%
X58420000Y-69850000D03*
%TO.P,Pi Conn,10*%
%TO.N,Net-(J2-Pad10)*%
X60960000Y-67310000D03*
%TO.P,Pi Conn,9*%
%TO.N,Net-(HIDPWD1-Pad1)*%
X58420000Y-67310000D03*
%TO.P,Pi Conn,8*%
%TO.N,Net-(J2-Pad8)*%
X60960000Y-64770000D03*
%TO.P,Pi Conn,7*%
%TO.N,Net-(J2-Pad7)*%
X58420000Y-64770000D03*
%TO.P,Pi Conn,6*%
%TO.N,GND*%
X60960000Y-62230000D03*
%TO.P,Pi Conn,5*%
%TO.N,Net-(J2-Pad5)*%
X58420000Y-62230000D03*
%TO.P,Pi Conn,4*%
%TO.N,Net-(HIDPWD1-Pad2)*%
X60960000Y-59690000D03*
%TO.P,Pi Conn,3*%
%TO.N,Net-(J2-Pad3)*%
X58420000Y-59690000D03*
%TO.P,Pi Conn,2*%
%TO.N,+5V*%
X60960000Y-57150000D03*
D11*
%TO.P,Pi Conn,1*%
%TO.N,+3V3*%
X58420000Y-57150000D03*
%TD*%
D12*
%TO.P,PWR,2*%
%TO.N,Net-(D2-Pad2)*%
X66040000Y-77470000D03*
D13*
%TO.P,PWR,1*%
%TO.N,GND*%
X68580000Y-77470000D03*
%TD*%
D12*
%TO.P,DI,2*%
%TO.N,Net-(D1-Pad2)*%
X66040000Y-82550000D03*
D13*
%TO.P,DI,1*%
%TO.N,GND*%
X68580000Y-82550000D03*
%TD*%
D14*
%TO.P,+ HIDPWD -,2*%
%TO.N,Net-(HIDPWD1-Pad2)*%
X57230000Y-40640000D03*
D15*
%TO.P,+ HIDPWD -,1*%
%TO.N,Net-(HIDPWD1-Pad1)*%
X62230000Y-40640000D03*
%TD*%
D16*
%TO.P,L                  H,HV4*%
%TO.N,Net-(U2-PadHV4)*%
X77470000Y-69850000D03*
%TO.P,L                  H,HV3*%
%TO.N,Net-(J4-Pad2)*%
X77470000Y-67310000D03*
%TO.P,L                  H,GND_1*%
%TO.N,GND*%
X77470000Y-64770000D03*
%TO.P,L                  H,HV*%
%TO.N,+5V*%
X77470000Y-62230000D03*
%TO.P,L                  H,HV2*%
%TO.N,Net-(U2-PadHV2)*%
X77470000Y-59690000D03*
D17*
%TO.P,L                  H,HV1*%
%TO.N,Net-(J4-Pad1)*%
X77470000Y-57150000D03*
D16*
%TO.P,L                  H,LV4*%
%TO.N,Net-(U2-PadLV4)*%
X67310000Y-69850000D03*
%TO.P,L                  H,LV3*%
%TO.N,Net-(J2-Pad18)*%
X67310000Y-67310000D03*
%TO.P,L                  H,GND_2*%
%TO.N,GND*%
X67310000Y-64770000D03*
%TO.P,L                  H,LV*%
%TO.N,+3V3*%
X67310000Y-62230000D03*
%TO.P,L                  H,LV2*%
%TO.N,Net-(U2-PadLV2)*%
X67310000Y-59690000D03*
D17*
%TO.P,L                  H,LV1*%
%TO.N,Net-(J2-Pad16)*%
X67310000Y-57150000D03*
%TD*%
D18*
%TO.P,R2,2*%
%TO.N,+5V*%
X77470000Y-88900000D03*
D19*
%TO.P,R2,1*%
%TO.N,Net-(J5-Pad15)*%
X77470000Y-81280000D03*
%TD*%
D18*
%TO.P,R1,2*%
%TO.N,+5V*%
X77470000Y-93980000D03*
D19*
%TO.P,R1,1*%
%TO.N,Net-(J5-Pad3)*%
X77470000Y-101600000D03*
%TD*%
D14*
%TO.P,Relay      ,2*%
%TO.N,Net-(J2-Pad12)*%
X80090000Y-40640000D03*
D15*
%TO.P,Relay      ,1*%
%TO.N,Net-(kljsd1-Pad1)*%
X85090000Y-40640000D03*
%TD*%
D14*
%TO.P,D0 Data D1,2*%
%TO.N,Net-(J4-Pad2)*%
X68660000Y-40640000D03*
D15*
%TO.P,D0 Data D1,1*%
%TO.N,Net-(J4-Pad1)*%
X73660000Y-40640000D03*
%TD*%
D20*
%TO.N,Net-(J2-Pad37)*%
X79762998Y-97790000D02*
X83820000Y-97790000D01*
X73507997Y-104045001D02*
X79762998Y-97790000D01*
X59595001Y-104045001D02*
X73507997Y-104045001D01*
X58420000Y-102870000D02*
X59595001Y-104045001D01*
%TO.N,Net-(J2-Pad36)*%
X76200000Y-100330000D02*
X60960000Y-100330000D01*
X83820000Y-92710000D02*
X76200000Y-100330000D01*
%TO.N,Net-(J2-Pad33)*%
X83820000Y-80010000D02*
X76200000Y-87630000D01*
X76200000Y-87630000D02*
X76200000Y-97790000D01*
X76200000Y-97790000D02*
X74930000Y-99060000D01*
X59690000Y-99060000D02*
X58420000Y-97790000D01*
X74930000Y-99060000D02*
X59690000Y-99060000D01*
%TO.N,Net-(J2-Pad32)*%
X60960000Y-95250000D02*
X62230000Y-93980000D01*
X62230000Y-93980000D02*
X73660000Y-93980000D01*
X73660000Y-93980000D02*
X74930000Y-92710000D01*
X74930000Y-87160998D02*
X83350998Y-78740000D01*
X74930000Y-92710000D02*
X74930000Y-87160998D01*
X84995001Y-76105001D02*
X83820000Y-74930000D01*
X84995001Y-78034001D02*
X84995001Y-76105001D01*
X84289002Y-78740000D02*
X84995001Y-78034001D01*
X83350998Y-78740000D02*
X84289002Y-78740000D01*
%TO.N,Net-(J2-Pad31)*%
X83820000Y-77470000D02*
X73660000Y-87630000D01*
X73660000Y-87630000D02*
X73660000Y-91440000D01*
X59595001Y-94074999D02*
X58420000Y-95250000D01*
X61334003Y-94074999D02*
X59595001Y-94074999D01*
X61879012Y-93529990D02*
X61334003Y-94074999D01*
X71570010Y-93529990D02*
X61879012Y-93529990D01*
X73660000Y-91440000D02*
X71570010Y-93529990D01*
%TO.N,Net-(J2-Pad18)*%
X62162081Y-77470000D02*
X68580000Y-71052081D01*
X60960000Y-77470000D02*
X62162081Y-77470000D01*
X68580000Y-68580000D02*
X67310000Y-67310000D01*
X68580000Y-71052081D02*
X68580000Y-68580000D01*
%TO.N,Net-(J2-Pad16)*%
X66222999Y-58237001D02*
X67310000Y-57150000D01*
X66222999Y-69667001D02*
X66222999Y-58237001D01*
X60960000Y-74930000D02*
X66222999Y-69667001D01*
%TO.N,Net-(J2-Pad12)*%
X77784990Y-38334990D02*
X80090000Y-40640000D01*
X67344990Y-39105306D02*
X68115306Y-38334990D01*
X67344990Y-42174694D02*
X67344990Y-39105306D01*
X69030010Y-43859714D02*
X67344990Y-42174694D01*
X69030010Y-71238481D02*
X69030010Y-43859714D01*
X60395999Y-78645001D02*
X61623490Y-78645001D01*
X68115306Y-38334990D02*
X77784990Y-38334990D01*
X59784999Y-78034001D02*
X60395999Y-78645001D01*
X59784999Y-71025001D02*
X59784999Y-78034001D01*
X61623490Y-78645001D02*
X69030010Y-71238481D01*
X60960000Y-69850000D02*
X59784999Y-71025001D01*
%TO.N,+5V*%
X79915001Y-91534999D02*
X77470000Y-93980000D01*
X80104999Y-91534999D02*
X79915001Y-91534999D01*
X84995001Y-101694999D02*
X83820000Y-102870000D01*
X84995001Y-92145999D02*
X84995001Y-101694999D01*
X63545001Y-54564999D02*
X60960000Y-57150000D01*
X63545001Y-40594999D02*
X63545001Y-54564999D01*
X80184684Y-37884980D02*
X66255020Y-37884980D01*
X81405010Y-39105306D02*
X80184684Y-37884980D01*
X66255020Y-37884980D02*
X63545001Y-40594999D01*
X81405010Y-58294990D02*
X81405010Y-39105306D01*
X84995001Y-92145999D02*
X84995001Y-100894001D01*
X84384001Y-91534999D02*
X84995001Y-92145999D01*
X80104999Y-91534999D02*
X84384001Y-91534999D01*
X77470000Y-88900000D02*
X80104999Y-91534999D01*
X85445010Y-85203992D02*
X85445010Y-62585010D01*
X84384001Y-86265001D02*
X85445010Y-85203992D01*
X80104999Y-86265001D02*
X84384001Y-86265001D01*
X77470000Y-88900000D02*
X80104999Y-86265001D01*
X85445010Y-62585010D02*
X81280000Y-58420000D01*
X81280000Y-58420000D02*
X81405010Y-58294990D01*
X77470000Y-62230000D02*
X81280000Y-58420000D01*
X59784999Y-55974999D02*
X60960000Y-57150000D01*
X57309999Y-55974999D02*
X59784999Y-55974999D01*
X57244999Y-56039999D02*
X57309999Y-55974999D01*
X57244999Y-105974001D02*
X57244999Y-56039999D01*
X57855999Y-106585001D02*
X57244999Y-105974001D01*
X80104999Y-106585001D02*
X57855999Y-106585001D01*
X83820000Y-102870000D02*
X80104999Y-106585001D01*
%TO.N,+3V3*%
X67310000Y-62699002D02*
X67310000Y-62230000D01*
X68332001Y-56062999D02*
X66287999Y-56062999D01*
X68397001Y-56127999D02*
X68332001Y-56062999D01*
X68397001Y-61142999D02*
X68397001Y-56127999D01*
X67310000Y-62230000D02*
X68397001Y-61142999D01*
X61485997Y-60865001D02*
X63715499Y-58635499D01*
X60395999Y-60865001D02*
X61485997Y-60865001D01*
X59784999Y-59315997D02*
X59784999Y-60254001D01*
X58420000Y-57950998D02*
X59784999Y-59315997D01*
X58420000Y-57150000D02*
X58420000Y-57950998D01*
X59784999Y-60254001D02*
X60395999Y-60865001D01*
X63715499Y-58635499D02*
X63130020Y-59220978D01*
X66287999Y-56062999D02*
X63715499Y-58635499D01*
%TO.N,Net-(J4-Pad2)*%
X69480020Y-59320020D02*
X77470000Y-67310000D01*
X69480020Y-41460020D02*
X69480020Y-59320020D01*
X68660000Y-40640000D02*
X69480020Y-41460020D01*
%TO.N,Net-(J4-Pad1)*%
X73660000Y-53340000D02*
X77470000Y-57150000D01*
X73660000Y-40640000D02*
X73660000Y-53340000D01*
%TO.N,Net-(J5-Pad3)*%
X82550000Y-101600000D02*
X83820000Y-100330000D01*
X77470000Y-101600000D02*
X82550000Y-101600000D01*
%TO.N,Net-(J5-Pad15)*%
X77470000Y-81280000D02*
X78740000Y-81280000D01*
X78740000Y-81280000D02*
X82550000Y-77470000D01*
X82550000Y-71120000D02*
X83820000Y-69850000D01*
X82550000Y-77470000D02*
X82550000Y-71120000D01*
%TD*%
M02*
