G04 PiDoors HAT v2.0 - Top Solder Mask*
G04 Generated: 2026-01-10*
G04 Board Size: 65mm x 56.5mm*
%FSLAX46Y46*%
%MOIN*%
%TF.GenerationSoftware,PiDoors,PCBGenerator,2.0*%
%TF.SameCoordinates,Original*%
%TF.FileFunction,Soldermask,Top*%
%TF.FilePolarity,Negative*%
G04 Aperture Definitions (pad openings)*
%ADD10C,0.110*%
%ADD11C,0.075*%
%ADD12R,0.075X0.075*%
%ADD13O,0.075X0.075*%
%ADD14R,0.146X0.146*%
%ADD15R,0.071X0.142*%
%ADD16R,0.099X0.106*%
%ADD17C,0.047*%
%ADD18R,0.045X0.045*%
%ADD19O,0.106X0.106*%
%ADD20R,0.067X0.032*%
%ADD21R,0.047X0.032*%
%ADD22R,0.043X0.039*%
%ADD23R,0.045X0.063*%
%ADD24C,0.106*%
%ADD25R,0.087X0.087*%
%ADD26R,0.071X0.087*%
%ADD27R,0.039X0.045*%
%ADD28R,0.150X0.087*%
G04*
G04 Mounting Holes (no mask)*
D10*
X137795Y137795D03*
G04 H1*
X2421260Y137795D03*
G04 H2*
X137795Y2086614D03*
G04 H3*
X2421260Y2086614D03*
G04 H4*
G04*
G04 J1 GPIO Header Pad Openings*
D12*
X329724Y1065276D03*
D13*
X329724Y1115315D03*
X429724Y1065276D03*
X429724Y1115315D03*
X529724Y1065276D03*
X529724Y1115315D03*
X629724Y1065276D03*
X629724Y1115315D03*
X729724Y1065276D03*
X729724Y1115315D03*
X829724Y1065276D03*
X829724Y1115315D03*
X929724Y1065276D03*
X929724Y1115315D03*
X1029724Y1065276D03*
X1029724Y1115315D03*
X1129724Y1065276D03*
X1129724Y1115315D03*
X1229724Y1065276D03*
X1229724Y1115315D03*
X1329724Y1065276D03*
X1329724Y1115315D03*
X1429724Y1065276D03*
X1429724Y1115315D03*
X1529724Y1065276D03*
X1529724Y1115315D03*
X1629724Y1065276D03*
X1629724Y1115315D03*
X1729724Y1065276D03*
X1729724Y1115315D03*
X1829724Y1065276D03*
X1829724Y1115315D03*
X1929724Y1065276D03*
X1929724Y1115315D03*
G04*
G04 J2 Barrel Jack*
D14*
X314961Y393701D03*
X551181Y393701D03*
G04*
G04 Power Components*
D15*
X708661Y393701D03*
X787402Y393701D03*
G04 F1 Fuse*
D26*
X933071Y393701D03*
X1023622Y393701D03*
G04 D1 TVS*
D26*
X1259843Y393701D03*
X1341732Y393701D03*
G04 D7 Schottky*
D25*
X1653543Y393701D03*
X1791339Y393701D03*
G04 C1 Cap*
D25*
X2047244Y393701D03*
X2147244Y393701D03*
X2247244Y393701D03*
G04 U1 DC-DC*
D25*
X2362205Y393701D03*
X2461024Y393701D03*
G04 C2 Cap*
G04*
G04 U2 LDO*
D15*
X1956693Y834646D03*
X2047244Y834646D03*
X2137795Y834646D03*
D28*
X2047244Y708661D03*
G04*
G04 Wiegand Section*
D19*
X472441Y1889764D03*
X672441Y1889764D03*
X872441Y1889764D03*
X1072441Y1889764D03*
G04 J3 Terminal*
D21*
X665354Y1614173D03*
X665354Y1653543D03*
X665354Y1692913D03*
X752756Y1692913D03*
X752756Y1653543D03*
X752756Y1614173D03*
G04 U4 TXB0102*
G04*
G04 RS-485 Section*
D19*
X1496063Y1889764D03*
X1696063Y1889764D03*
X1896063Y1889764D03*
X2096063Y1889764D03*
G04 J4 Terminal*
D20*
X1862205Y1578346D03*
X1862205Y1603150D03*
X1862205Y1653543D03*
X1862205Y1728385D03*
X2074803Y1728385D03*
X2074803Y1678346D03*
X2074803Y1628385D03*
X2074803Y1578346D03*
G04 U3 MAX13487E*
G04*
G04 Relay Section*
D25*
X393701Y1003937D03*
X393701Y1259843D03*
X787402Y1003937D03*
X787402Y1131890D03*
X787402Y1259843D03*
G04 K1 Relay*
D22*
X356299Y1536220D03*
X431102Y1536220D03*
X393701Y1492913D03*
G04 Q1 Transistor*
D19*
X393701Y944882D03*
X594094Y944882D03*
X794488Y944882D03*
G04 J7 Relay Terminal*
D27*
X356299Y1377953D03*
X431102Y1377953D03*
G04 R5 Resistor*
D26*
X334646Y1181102D03*
X452756Y1181102D03*
G04 D6 Diode*
G04*
G04 LED Section*
D23*
X2322835Y708661D03*
X2362205Y708661D03*
G04 D8 Power LED*
X2322835Y807087D03*
X2362205Y807087D03*
G04 D9 OK LED*
X2322835Y905512D03*
X2362205Y905512D03*
G04 D10 Error LED*
D27*
X2165354Y708661D03*
X2244094Y708661D03*
G04 R10*
X2165354Y807087D03*
X2244094Y807087D03*
G04 R11*
X2165354Y905512D03*
X2244094Y905512D03*
G04 R12*
G04*
G04 Optocoupler*
D18*
X2362205Y1653543D03*
X2362205Y1753543D03*
X2662205Y1753543D03*
X2662205Y1653543D03*
G04 U5 PC817*
G04*
G04 Vias*
D17*
X2047244Y1003937D03*
X630315Y1163780D03*
X730315Y1163780D03*
X829724Y1163780D03*
X929724Y1065276D03*
X2173228Y708661D03*
G04*
M02*
