G04 PiDoors HAT v2.0 - Top Silkscreen*
G04 Generated: 2026-01-10*
G04 Board Size: 65mm x 56.5mm*
%FSLAX46Y46*%
%MOIN*%
%TF.GenerationSoftware,PiDoors,PCBGenerator,2.0*%
%TF.SameCoordinates,Original*%
%TF.FileFunction,Legend,Top*%
%TF.FilePolarity,Positive*%
G04 Aperture Definitions*
%ADD10C,0.006*%
%ADD11C,0.008*%
%ADD12C,0.010*%
G04*
G04 Title Text*
D12*
G04 "PiDoors HAT v2.0" at (32.5mm, 3mm)*
X1279528Y118110D02*
X1279528Y118110D01*
G04 "Wiegand | OSDP | NFC" at (32.5mm, 5.5mm)*
X1279528Y216535D02*
X1279528Y216535D01*
G04*
G04 Component Reference Designators*
D10*
G04 H1*
X137795Y59055D02*
X137795Y59055D01*
G04 H2*
X2421260Y59055D02*
X2421260Y59055D01*
G04 H3*
X137795Y2165354D02*
X137795Y2165354D01*
G04 H4*
X2421260Y2165354D02*
X2421260Y2165354D01*
G04*
G04 J1 - Raspberry Pi Header*
X1279528Y827559D02*
X1279528Y827559D01*
G04 J2 - 12V DC*
X314961Y157480D02*
X314961Y157480D01*
G04 J3 - Wiegand*
X767717Y1732283D02*
X767717Y1732283D01*
G04 J4 - RS485*
X1791339Y1732283D02*
X1791339Y1732283D01*
G04 J7 - Relay Out*
X594094Y787402D02*
X594094Y787402D01*
G04*
G04 Power Section Labels*
G04 F1*
X748031Y295276D02*
X748031Y295276D01*
G04 D1*
X1023622Y295276D02*
X1023622Y295276D01*
G04 D7*
X1341732Y295276D02*
X1341732Y295276D01*
G04 C1*
X1653543Y295276D02*
X1653543Y295276D01*
G04 U1*
X2047244Y295276D02*
X2047244Y295276D01*
G04 C2*
X2362205Y295276D02*
X2362205Y295276D01*
G04 U2*
X2047244Y610236D02*
X2047244Y610236D01*
G04*
G04 Interface Section Labels*
G04 U3*
X1968504Y1496063D02*
X1968504Y1496063D01*
G04 U4*
X708661Y1535433D02*
X708661Y1535433D01*
G04 U5*
X2519685Y1574803D02*
X2519685Y1574803D01*
G04*
G04 Relay Section Labels*
G04 K1*
X590551Y1181102D02*
X590551Y1181102D01*
G04 Q1*
X472441Y1417323D02*
X472441Y1417323D01*
G04 R5*
X472441Y1377953D02*
X472441Y1377953D01*
G04 D6*
X393701Y1102362D02*
X393701Y1102362D01*
G04*
G04 LED Labels*
G04 D8 - PWR*
X2421260Y630315D02*
X2421260Y630315D01*
G04 D9 - OK*
X2421260Y728740D02*
X2421260Y728740D01*
G04 D10 - ERR*
X2421260Y827165D02*
X2421260Y827165D01*
G04 R10*
X2204724Y630315D02*
X2204724Y630315D01*
G04 R11*
X2204724Y728740D02*
X2204724Y728740D01*
G04 R12*
X2204724Y827165D02*
X2204724Y827165D01*
G04*
G04 Terminal Block Pin Labels*
G04 J3: D0 D1 5V GND*
D11*
X472441Y1968504D02*
X472441Y1968504D01*
X672441Y1968504D02*
X672441Y1968504D01*
X872441Y1968504D02*
X872441Y1968504D01*
X1072441Y1968504D02*
X1072441Y1968504D01*
G04 J4: A B GND*
X1496063Y1968504D02*
X1496063Y1968504D01*
X1696063Y1968504D02*
X1696063Y1968504D01*
X1896063Y1968504D02*
X1896063Y1968504D01*
G04 J7: NO COM NC*
X393701Y866142D02*
X393701Y866142D01*
X594094Y866142D02*
X594094Y866142D01*
X794488Y866142D02*
X794488Y866142D01*
G04*
G04 Polarity Indicators*
G04 C1 + marker*
X1574803Y354331D02*
X1653543Y433071D01*
G04 C2 + marker*
X2283465Y354331D02*
X2362205Y433071D01*
G04 D1 cathode band*
X893701Y314961D02*
X893701Y472441D01*
G04 D7 cathode band*
X1220472Y314961D02*
X1220472Y472441D01*
G04*
G04 Pin 1 Indicators*
G04 U3 Pin 1 dot*
X1791339Y1535433D02*
X1791339Y1535433D01*
G04 U4 Pin 1 dot*
X610236Y1574803D02*
X610236Y1574803D01*
G04 U5 Pin 1 dot*
X2303150Y1614173D02*
X2303150Y1614173D01*
G04 J1 Pin 1 marker*
X275591Y1026378D02*
X275591Y1026378D01*
G04*
G04 Component Outlines*
D11*
G04 J1 GPIO Header Outline*
X137795Y984252D02*
X2421260Y984252D01*
X2421260Y1204724D01*
X137795Y1204724D01*
X137795Y984252D01*
G04*
G04 K1 Relay Outline*
X236220Y905512D02*
X905512Y905512D01*
X905512Y1377953D01*
X236220Y1377953D01*
X236220Y905512D01*
G04*
G04 U1 DC-DC Converter Outline*
X1968504Y275591D02*
X2362205Y275591D01*
X2362205Y511811D01*
X1968504Y511811D01*
X1968504Y275591D01*
G04*
M02*
