G04 PiDoors HAT v2.0 - Bottom Solder Mask*
G04 Generated: 2026-01-10*
G04 Board Size: 65mm x 56.5mm*
%FSLAX46Y46*%
%MOIN*%
%TF.GenerationSoftware,PiDoors,PCBGenerator,2.0*%
%TF.SameCoordinates,Original*%
%TF.FileFunction,Soldermask,Bot*%
%TF.FilePolarity,Negative*%
G04 Aperture Definitions*
%ADD10C,0.110*%
%ADD11C,0.075*%
%ADD12R,0.075X0.075*%
%ADD13O,0.075X0.075*%
%ADD17C,0.047*%
%ADD24C,0.106*%
%ADD25R,0.087X0.087*%
G04*
G04 Mounting Holes*
D10*
X137795Y137795D03*
X2421260Y137795D03*
X137795Y2086614D03*
X2421260Y2086614D03*
G04*
G04 Through-hole Component Pads*
G04 J1 GPIO Header*
D12*
X329724Y1065276D03*
D13*
X329724Y1115315D03*
X429724Y1065276D03*
X429724Y1115315D03*
X529724Y1065276D03*
X529724Y1115315D03*
X629724Y1065276D03*
X629724Y1115315D03*
X729724Y1065276D03*
X729724Y1115315D03*
X829724Y1065276D03*
X829724Y1115315D03*
X929724Y1065276D03*
X929724Y1115315D03*
X1029724Y1065276D03*
X1029724Y1115315D03*
X1129724Y1065276D03*
X1129724Y1115315D03*
X1229724Y1065276D03*
X1229724Y1115315D03*
X1329724Y1065276D03*
X1329724Y1115315D03*
X1429724Y1065276D03*
X1429724Y1115315D03*
X1529724Y1065276D03*
X1529724Y1115315D03*
X1629724Y1065276D03*
X1629724Y1115315D03*
X1729724Y1065276D03*
X1729724Y1115315D03*
X1829724Y1065276D03*
X1829724Y1115315D03*
X1929724Y1065276D03*
X1929724Y1115315D03*
G04*
G04 J2 Barrel Jack*
D24*
X314961Y393701D03*
X551181Y393701D03*
G04*
G04 C1, C2, U1 Through-hole*
D25*
X1653543Y393701D03*
X1791339Y393701D03*
X2047244Y393701D03*
X2147244Y393701D03*
X2247244Y393701D03*
X2362205Y393701D03*
X2461024Y393701D03*
G04*
G04 Terminal Blocks*
D24*
X472441Y1889764D03*
X672441Y1889764D03*
X872441Y1889764D03*
X1072441Y1889764D03*
X1496063Y1889764D03*
X1696063Y1889764D03*
X1896063Y1889764D03*
X2096063Y1889764D03*
X393701Y944882D03*
X594094Y944882D03*
X794488Y944882D03*
G04*
G04 K1 Relay*
D25*
X393701Y1003937D03*
X393701Y1259843D03*
X787402Y1003937D03*
X787402Y1131890D03*
X787402Y1259843D03*
G04*
G04 U5 Optocoupler*
D11*
X2362205Y1653543D03*
X2362205Y1753543D03*
X2662205Y1753543D03*
X2662205Y1653543D03*
G04*
G04 Vias*
D17*
X2047244Y1003937D03*
X630315Y1163780D03*
X730315Y1163780D03*
X829724Y1163780D03*
X929724Y1065276D03*
X2173228Y708661D03*
G04*
M02*
