M48
; DRILL FILE - PiDoors HAT v2.0
; Generated: 2026-01-10
; Plated Through Holes (PTH)
; Format: Excellon
; Units: INCH
FMAT,2
INCH,TZ
; Drill Tool Definitions
; T1 = 0.4mm (Vias)
; T2 = 0.8mm (Small IC)
; T3 = 1.0mm (Standard THT)
; T4 = 1.2mm (Relay)
; T5 = 1.4mm (Terminal Blocks)
; T6 = 2.5mm (Barrel Jack)
T1C0.0157
T2C0.0315
T3C0.0394
T4C0.0472
T5C0.0551
T6C0.0984
%
G90
G05
M72
; Tool T1 - 0.4mm Vias
T1
X20472Y10039
X06303Y11638
X07303Y11638
X08297Y11638
X09297Y10653
X21732Y07087
; Tool T2 - 0.8mm Small IC (PC817)
T2
X23622Y16535
X23622Y17535
X26622Y17535
X26622Y16535
; Tool T3 - 1.0mm Standard THT (GPIO Header, Capacitors, DC-DC)
T3
; J1 GPIO Header - 40 pins
X03297Y10653
X03297Y11153
X04297Y10653
X04297Y11153
X05297Y10653
X05297Y11153
X06297Y10653
X06297Y11153
X07297Y10653
X07297Y11153
X08297Y10653
X08297Y11153
X09297Y10653
X09297Y11153
X10297Y10653
X10297Y11153
X11297Y10653
X11297Y11153
X12297Y10653
X12297Y11153
X13297Y10653
X13297Y11153
X14297Y10653
X14297Y11153
X15297Y10653
X15297Y11153
X16297Y10653
X16297Y11153
X17297Y10653
X17297Y11153
X18297Y10653
X18297Y11153
X19297Y10653
X19297Y11153
; C1 100uF/35V
X16535Y03937
X17913Y03937
; U1 DC-DC Converter
X20472Y03937
X21472Y03937
X22472Y03937
; C2 100uF/10V
X23622Y03937
X24610Y03937
; Tool T4 - 1.2mm Relay
T4
; K1 Relay
X03937Y10039
X03937Y12598
X07874Y10039
X07874Y11319
X07874Y12598
; Tool T5 - 1.4mm Terminal Blocks
T5
; J3 Wiegand (4-pos)
X04724Y18898
X06724Y18898
X08724Y18898
X10724Y18898
; J4 RS-485 (4-pos)
X14961Y18898
X16961Y18898
X18961Y18898
X20961Y18898
; J7 Relay Output (3-pos)
X03937Y09449
X05941Y09449
X07945Y09449
; Tool T6 - 2.5mm Barrel Jack
T6
; J2 12V DC Barrel Jack
X03150Y03937
X05512Y03937
M30
