G04 PiDoors HAT v2.0 - Top Copper Layer*
G04 Generated: 2026-01-10*
G04 Board Size: 65mm x 56.5mm*
%FSLAX46Y46*%
%MOIN*%
%TF.GenerationSoftware,PiDoors,PCBGenerator,2.0*%
%TF.SameCoordinates,Original*%
%TF.FileFunction,Copper,L1,Top*%
%TF.FilePolarity,Positive*%
G04 Aperture Definitions*
%ADD10C,0.006*%
%ADD11C,0.010*%
%ADD12C,0.020*%
%ADD13R,0.067X0.067*%
%ADD14O,0.067X0.067*%
%ADD15R,0.138X0.138*%
%ADD16R,0.063X0.134*%
%ADD17R,0.091X0.098*%
%ADD18C,0.039*%
%ADD19R,0.037X0.037*%
%ADD20O,0.098X0.098*%
%ADD21R,0.059X0.024*%
%ADD22R,0.039X0.024*%
%ADD23R,0.035X0.031*%
%ADD24R,0.037X0.055*%
%ADD25C,0.098*%
%ADD26R,0.079X0.079*%
%ADD27R,0.063X0.079*%
%ADD28R,0.031X0.037*%
%ADD29R,0.142X0.079*%
G04 Board Outline Reference (Edge.Cuts layer)*
G04 Rectangle: (0,0) to (65mm, 56.5mm)*
G04 Mounting Holes: H1(3.5,3.5) H2(61.5,3.5) H3(3.5,53) H4(61.5,53)*
G04*
G04 Power Section - 12V Input and Regulation*
D12*
X315000Y393701D02*
X620079Y393701D01*
G04 +12V trace from J2 barrel jack to F1 fuse*
X787402Y393701D02*
X933071Y393701D01*
G04 +12V_FUSED from F1 to D1 TVS*
X1114173Y393701D02*
X1259843Y393701D01*
G04 +12V_FUSED to D7 Schottky*
X1421260Y393701D02*
X1653543Y393701D01*
G04 +12V_FUSED to C1 capacitor*
X1653543Y393701D02*
X2047244Y393701D01*
G04 +12V_FUSED to U1 DC-DC converter*
G04*
G04 5V Power Distribution*
X2047244Y393701D02*
X2244094Y393701D01*
G04 +5V from U1 output*
X2362205Y393701D02*
X2362205Y393701D01*
G04 +5V to C2 filter cap*
G04*
G04 3.3V LDO Section*
X2047244Y708661D02*
X2047244Y834646D01*
G04 U2 LD1117S33 3.3V regulator output*
G04*
G04 GPIO Header J1 (2x20 Pin Socket)*
G04 Located at center: 32.5mm, 28.25mm*
D13*
X329724Y1065276D03*
G04 Pin 1: +3V3*
D14*
X329724Y1115315D03*
G04 Pin 2: +5V*
X429724Y1065276D03*
G04 Pin 3: I2C_SDA*
X429724Y1115315D03*
G04 Pin 4: +5V*
X529724Y1065276D03*
G04 Pin 5: I2C_SCL*
X529724Y1115315D03*
G04 Pin 6: GND*
X629724Y1065276D03*
G04 Pin 7: NC*
X629724Y1115315D03*
G04 Pin 8: GPIO14_TX*
X729724Y1065276D03*
G04 Pin 9: GND*
X729724Y1115315D03*
G04 Pin 10: GPIO15_RX*
X829724Y1065276D03*
G04 Pin 11: GPIO17_REX*
X829724Y1115315D03*
G04 Pin 12: GPIO18_RELAY*
X929724Y1065276D03*
G04 Pin 13: GPIO27_DOOR*
X929724Y1115315D03*
G04 Pin 14: GND*
X1029724Y1065276D03*
G04 Pin 15: GPIO22_LED_ERR*
X1029724Y1115315D03*
G04 Pin 16: GPIO23_D1*
X1129724Y1065276D03*
G04 Pin 17: +3V3*
X1129724Y1115315D03*
G04 Pin 18: GPIO24_D0*
X1229724Y1065276D03*
G04 Pin 19: SPI_MOSI*
X1229724Y1115315D03*
G04 Pin 20: GND*
X1329724Y1065276D03*
G04 Pin 21: SPI_MISO*
X1329724Y1115315D03*
G04 Pin 22: GPIO25_LED_OK*
X1429724Y1065276D03*
G04 Pin 23: SPI_SCLK*
X1429724Y1115315D03*
G04 Pin 24: SPI_CE0*
X1529724Y1065276D03*
G04 Pin 25: GND*
X1629724Y1065276D03*
G04 Pin 31: GPIO6_TAMPER*
X1629724Y1115315D03*
G04 Pin 32: GPIO12_BUZZER*
X1729724Y1065276D03*
G04 Pin 33: GPIO13_LED_ACT*
X1729724Y1115315D03*
G04 Pin 34: GND*
X1929724Y1115315D03*
G04 Pin 36: GPIO16_IRQ*
G04*
G04 Wiegand Interface Section*
G04 J3 Terminal Block at (12mm, 48mm)*
D20*
X472441Y1889764D03*
G04 J3 Pin 1: WIEG_D0*
X672441Y1889764D03*
G04 J3 Pin 2: WIEG_D1*
X872441Y1889764D03*
G04 J3 Pin 3: +5V*
X1072441Y1889764D03*
G04 J3 Pin 4: GND*
G04*
G04 U4 TXB0102 Level Shifter at (18mm, 42mm)*
D22*
X665354Y1614173D03*
G04 U4 Pin 1: +3V3*
X665354Y1653543D03*
G04 U4 Pin 2: +5V*
X665354Y1692913D03*
G04 U4 Pin 3: WIEG_D0_PROT*
X752756Y1692913D03*
G04 U4 Pin 4: GPIO24_D0*
X752756Y1653543D03*
G04 U4 Pin 5: WIEG_D1_PROT*
X752756Y1614173D03*
G04 U4 Pin 6: GPIO23_D1*
G04*
G04 Wiegand signal routing*
D10*
X472441Y1889764D02*
X472441Y1653543D01*
X665354Y1692913D01*
G04 WIEG_D0 trace*
X672441Y1889764D02*
X672441Y1653543D01*
X665354Y1653543D01*
G04 WIEG_D1 trace*
G04*
G04 RS-485 Interface Section*
G04 J4 Terminal Block at (38mm, 48mm)*
D20*
X1496063Y1889764D03*
G04 J4 Pin 1: RS485_A*
X1696063Y1889764D03*
G04 J4 Pin 2: RS485_B*
X1896063Y1889764D03*
G04 J4 Pin 3: GND*
G04*
G04 U3 MAX13487E Transceiver at (50mm, 42mm)*
D21*
X1862205Y1578346D03*
G04 U3 Pin 1: GPIO15_RX*
X1862205Y1628385D03*
G04 U3 Pin 4: GPIO14_TX*
X2074803Y1728385D03*
G04 U3 Pin 5: GND*
X2074803Y1678346D03*
G04 U3 Pin 6: RS485_A*
X2074803Y1628385D03*
G04 U3 Pin 7: RS485_B*
X2074803Y1578346D03*
G04 U3 Pin 8: +3V3*
G04*
G04 RS-485 signal routing*
D10*
X1496063Y1889764D02*
X2074803Y1678346D01*
G04 RS485_A trace*
X1696063Y1889764D02*
X2074803Y1628385D01*
G04 RS485_B trace*
G04*
G04 Relay Driver Section*
G04 K1 Relay at (10mm, 32mm)*
D26*
X393701Y1003937D03*
G04 K1 Coil+: +12V_FUSED*
X393701Y1259843D03*
G04 K1 Coil-: RELAY_COIL*
X787402Y1003937D03*
G04 K1 NO*
X787402Y1131890D03*
G04 K1 COM*
X787402Y1259843D03*
G04 K1 NC*
G04*
G04 Q1 MMBT2222A Driver at (10mm, 38mm)*
D23*
X356299Y1536220D03*
G04 Q1 Base: RELAY_BASE*
X431102Y1536220D03*
G04 Q1 Collector: RELAY_COIL*
X393701Y1492913D03*
G04 Q1 Emitter: GND*
G04*
G04 R5 Base Resistor*
D28*
X356299Y1377953D03*
X431102Y1377953D03*
G04 R5: GPIO18_RELAY to RELAY_BASE*
G04*
G04 D6 Flyback Diode*
D27*
X334646Y1181102D03*
X452756Y1181102D03*
G04 D6: RELAY_COIL to +12V_FUSED*
G04*
G04 LED Indicator Section*
G04 D8 Power LED, D9 OK LED, D10 Error LED*
D24*
X2322835Y708661D03*
X2362205Y708661D03*
G04 D8 Power LED*
X2322835Y807087D03*
X2362205Y807087D03*
G04 D9 OK LED*
X2322835Y905512D03*
X2362205Y905512D03*
G04 D10 Error LED*
G04*
G04 LED Current Limiting Resistors*
D28*
X2165354Y708661D03*
X2244094Y708661D03*
G04 R10: +5V to PWR_LED*
X2165354Y807087D03*
X2244094Y807087D03*
G04 R11: GPIO25 to LED_OK*
X2165354Y905512D03*
X2244094Y905512D03*
G04 R12: GPIO22 to LED_ERR*
G04*
G04 Optocoupler Door Sensor*
G04 U5 PC817 at (60mm, 42mm)*
D19*
X2362205Y1653543D03*
G04 U5 Pin 1: OPTO_LED*
X2362205Y1753543D03*
G04 U5 Pin 2: DOOR_SENSOR_GND*
X2662205Y1753543D03*
G04 U5 Pin 3: GPIO27_DOOR*
X2662205Y1653543D03*
G04 U5 Pin 4: +3V3*
G04*
G04 Vias*
D18*
X2047244Y1003937D03*
G04 Via: +12V_FUSED to B.Cu*
X630315Y1163780D03*
G04 Via: GPIO14_TX*
X730315Y1163780D03*
G04 Via: GPIO15_RX*
X829724Y1163780D03*
G04 Via: GPIO18_RELAY*
X929724Y1065276D03*
G04 Via: GPIO27_DOOR*
X2173228Y708661D03*
G04 Via: +5V power*
G04*
M02*
